<?xml version="1.0" standalone="no"?>
<!DOCTYPE svg PUBLIC "-//W3C//DTD SVG 20010904//EN"
 "http://www.w3.org/TR/2001/REC-SVG-20010904/DTD/svg10.dtd">
<svg version="1.0" xmlns="http://www.w3.org/2000/svg"
 width="1920.000000pt" height="1920.000000pt" viewBox="0 0 1920.000000 1920.000000"
 preserveAspectRatio="xMidYMid meet">
<metadata>
Created by potrace 1.11, written by Peter Selinger 2001-2013
</metadata>
<g transform="translate(0.000000,1920.000000) scale(0.100000,-0.100000)"
fill="#000000" stroke="none">
<path d="M9765 14473 c-99 -7 -279 -15 -400 -17 -146 -2 -245 -9 -295 -19 -41
-8 -147 -18 -235 -22 -88 -3 -185 -13 -215 -20 -30 -8 -113 -17 -185 -21 -71
-4 -147 -13 -169 -20 -21 -8 -98 -17 -170 -20 -84 -4 -142 -12 -160 -21 -16
-9 -76 -18 -135 -22 -58 -4 -116 -13 -129 -20 -13 -7 -71 -16 -130 -21 -59 -4
-125 -15 -147 -23 -22 -9 -62 -17 -90 -17 -27 0 -68 -8 -90 -16 -22 -9 -79
-19 -126 -23 -66 -6 -93 -12 -114 -29 -21 -17 -41 -22 -86 -22 -47 0 -63 -5
-88 -25 -26 -23 -38 -26 -101 -24 -66 2 -104 -10 -87 -27 4 -4 41 -8 83 -8 60
0 78 3 88 16 11 14 31 18 112 19 101 2 164 -11 306 -63 50 -17 62 -19 88 -8
25 11 34 10 56 -5 14 -9 35 -14 47 -11 11 3 86 -17 166 -43 80 -27 158 -51
173 -55 15 -3 42 -19 61 -35 18 -16 44 -29 57 -30 69 -2 192 -21 205 -31 8 -7
15 -23 15 -36 0 -29 5 -30 37 -4 14 11 29 20 33 20 5 0 27 -16 49 -35 24 -19
48 -32 57 -28 15 6 68 -12 94 -32 8 -6 38 -17 65 -24 28 -6 82 -28 120 -47 39
-18 85 -34 103 -34 20 0 39 -8 49 -20 10 -11 28 -20 41 -20 13 0 38 -15 58
-35 26 -27 43 -35 69 -35 34 0 92 -33 166 -94 14 -12 52 -30 85 -40 41 -12 63
-25 70 -39 7 -17 19 -23 54 -25 45 -3 80 -24 80 -47 0 -22 38 -47 82 -52 27
-3 49 -13 60 -27 l17 -21 41 23 c23 13 49 30 58 38 9 8 67 53 127 99 61 47
130 101 153 122 24 21 49 40 55 42 7 2 33 21 58 42 26 22 50 39 54 39 4 0 29
18 55 40 26 22 53 40 59 40 6 0 19 8 29 18 9 9 43 34 74 55 31 21 60 42 63 47
3 6 13 10 21 10 8 0 37 18 65 40 28 22 56 40 63 40 7 0 21 9 31 20 10 11 24
20 30 20 7 0 18 7 25 16 8 8 27 22 44 30 46 23 85 45 147 87 31 20 61 37 67
37 6 0 17 8 24 19 7 10 22 20 33 23 15 3 20 11 19 35 -2 34 22 54 32 28 7 -17
64 -21 64 -5 0 5 16 16 35 24 47 20 47 46 0 46 -42 0 -54 18 -53 83 1 51 16
72 45 63 23 -7 48 8 39 23 -12 19 -74 13 -97 -10 -29 -29 -81 -23 -89 11 -4
18 -17 29 -45 38 -57 19 -65 30 -36 51 19 15 21 20 10 27 -24 15 -793 13 -994
-3z m845 -232 c0 -22 -25 -45 -40 -36 -13 8 -13 28 2 43 18 18 38 14 38 -7z"/>
<path d="M11163 14457 c2 -7 33 -27 70 -45 45 -22 72 -42 82 -62 19 -36 50
-47 74 -26 9 9 33 19 52 22 19 4 45 15 58 26 13 10 35 18 48 18 13 0 37 7 52
15 16 8 47 17 70 21 43 7 62 21 39 28 -7 3 -134 7 -281 9 -202 4 -267 2 -264
-6z"/>
<path d="M13514 14206 c-3 -8 8 -30 25 -49 48 -52 111 -139 111 -152 0 -7 9
-24 20 -38 11 -14 20 -30 20 -37 0 -7 9 -23 20 -37 11 -14 20 -33 20 -43 0
-10 9 -29 20 -43 11 -14 20 -36 20 -49 0 -12 9 -36 20 -53 11 -16 20 -46 20
-65 0 -20 7 -46 17 -59 10 -15 18 -52 21 -100 3 -45 11 -86 21 -101 14 -21 16
-74 20 -383 3 -333 2 -359 -15 -378 -14 -16 -19 -42 -22 -137 -2 -79 -8 -124
-18 -139 -8 -13 -14 -47 -14 -85 0 -46 -5 -71 -20 -93 -28 -42 -29 -160 -1
-174 18 -10 19 -6 20 71 1 89 6 102 25 75 17 -22 61 -24 52 -1 -3 9 -6 18 -6
20 0 3 -5 2 -10 -1 -17 -10 -21 17 -18 111 l3 89 22 -37 22 -38 70 0 c38 0 73
-5 76 -10 4 -6 1 -9 -6 -8 -19 5 -21 -19 -2 -25 10 -3 29 -12 43 -20 14 -8 42
-22 63 -31 21 -9 41 -26 46 -40 13 -32 37 -40 54 -16 7 10 26 22 42 25 18 4
25 3 18 -2 -10 -7 -9 -17 4 -46 20 -44 43 -49 40 -10 -1 19 3 28 16 31 22 5
47 -51 47 -107 0 -52 12 -58 43 -21 14 16 28 30 31 30 3 0 4 -17 3 -37 -2 -41
2 -43 58 -29 33 8 33 -12 0 -39 l-25 -20 27 -57 c29 -61 42 -71 50 -38 4 14
14 20 34 20 21 0 27 -4 23 -15 -12 -31 16 -69 66 -92 32 -14 50 -28 50 -39 0
-12 3 -14 13 -6 46 37 127 16 127 -33 0 -21 5 -25 28 -25 40 0 46 -10 20 -37
-25 -27 -53 -30 -62 -6 -5 12 -9 14 -18 5 -7 -7 -20 -12 -30 -12 -10 0 -21 -7
-24 -15 -4 -8 -16 -15 -29 -15 -50 0 -53 -42 -6 -82 25 -22 18 -44 -21 -64
-16 -8 -26 -19 -23 -24 5 -8 -63 -61 -95 -73 -10 -4 -8 -6 7 -6 12 -1 24 -7
26 -13 4 -10 7 -10 15 0 8 12 26 13 136 13 21 0 41 0 45 1 3 0 22 0 42 -1 28
-1 38 -6 42 -21 3 -11 10 -20 16 -20 14 0 14 17 1 25 -6 4 -8 10 -5 15 3 5 -4
14 -15 20 -22 12 -26 40 -8 58 17 17 -10 45 -38 38 -12 -3 -27 0 -33 8 -16 19
14 74 45 82 20 5 31 -1 59 -32 19 -22 34 -47 35 -56 0 -30 22 -32 45 -5 26 34
41 34 57 0 13 -27 17 -28 96 -31 l82 -3 0 35 c0 19 4 37 9 40 25 16 141 -78
157 -126 9 -31 24 -20 25 20 1 25 3 29 6 13 3 -13 12 -25 21 -28 13 -3 17 -16
18 -51 6 -201 5 -193 20 -181 19 15 28 6 19 -20 -7 -23 -25 -27 -42 -10 -15
15 -83 -53 -103 -101 -12 -29 -16 -31 -47 -25 -18 3 -33 2 -33 -4 0 -5 25 -11
56 -13 43 -2 59 1 71 15 23 25 28 22 58 -29 20 -34 25 -53 20 -72 -4 -15 -8
-40 -9 -57 -5 -66 -29 -104 -53 -83 -23 19 -41 1 -41 -42 -1 -34 3 -43 24 -52
21 -10 24 -17 19 -37 -4 -14 -9 -45 -12 -68 -4 -34 -2 -43 10 -43 15 0 50 37
73 76 9 16 14 17 27 6 13 -11 19 -11 37 0 18 11 23 10 35 -5 7 -10 22 -18 32
-17 10 1 30 2 45 1 l27 -1 -16 -45 c-12 -37 -21 -47 -44 -52 -35 -7 -47 -37
-25 -62 9 -10 16 -23 16 -29 0 -18 22 -26 31 -11 4 7 20 14 36 15 15 1 29 3
31 3 1 1 -2 9 -7 20 -8 14 -6 22 8 35 11 10 22 29 25 43 4 13 18 43 32 65 18
28 24 47 19 67 -8 37 19 68 67 76 31 6 38 4 49 -16 7 -13 18 -29 25 -36 14
-15 12 -96 -3 -115 -6 -7 -13 -29 -17 -49 -6 -34 -4 -37 19 -43 21 -5 26 -12
23 -34 -3 -24 -7 -27 -34 -25 -29 3 -31 1 -29 -27 1 -17 5 -33 9 -37 3 -3 6
-15 6 -25 0 -10 5 -18 10 -18 18 0 11 -29 -10 -40 -11 -6 -20 -20 -20 -32 0
-12 -11 -45 -25 -75 -14 -29 -23 -58 -20 -64 4 -5 2 -16 -4 -23 -6 -7 -9 -21
-5 -30 8 -20 40 -21 52 -1 10 19 42 10 42 -11 0 -8 8 -14 18 -14 10 0 21 -3
25 -6 9 -10 -20 -61 -38 -68 -13 -4 -15 -13 -10 -36 6 -26 4 -30 -14 -30 -12
0 -21 -6 -21 -15 0 -8 8 -15 19 -15 10 0 21 -9 24 -21 8 -29 -28 -63 -57 -55
-18 4 -29 -3 -52 -32 -38 -48 -60 -110 -45 -125 17 -17 13 -52 -9 -72 -16 -14
-19 -26 -15 -47 6 -26 4 -28 -22 -28 -40 0 -50 -10 -49 -50 0 -19 -2 -47 -6
-61 -7 -23 -4 -28 22 -39 24 -10 29 -17 24 -35 -3 -13 -1 -26 5 -29 30 -19 -3
-86 -43 -86 -21 0 -32 -28 -17 -43 15 -15 14 -67 -3 -99 -10 -18 -11 -28 -4
-28 6 0 -10 -21 -36 -46 -49 -48 -54 -67 -11 -44 23 12 28 11 50 -10 14 -13
25 -29 25 -36 0 -14 -43 -44 -63 -44 -20 0 -35 -20 -30 -40 3 -10 20 -29 39
-42 28 -19 34 -29 34 -60 0 -40 -13 -54 -48 -49 -20 2 -21 0 -12 -23 5 -14 9
-42 8 -61 -2 -44 6 -51 36 -37 27 12 48 -1 39 -24 -6 -17 -35 -18 -50 -3 -14
14 -24 -2 -16 -29 3 -15 13 -22 28 -22 18 0 24 -7 29 -35 4 -20 4 -40 1 -45
-10 -16 -42 7 -49 35 -7 28 -27 33 -46 10 -10 -12 -8 -16 14 -25 19 -7 26 -17
26 -35 0 -24 -3 -26 -32 -23 -26 2 -33 8 -33 25 0 30 -10 36 -34 23 -20 -10
-20 -13 -6 -47 20 -46 19 -53 -5 -53 -28 0 -37 -28 -14 -45 20 -15 81 -17 90
-3 8 13 24 9 24 -7 0 -8 -6 -12 -13 -9 -16 6 -42 -40 -52 -91 -3 -21 -12 -51
-19 -65 -7 -14 -11 -31 -10 -37 1 -7 2 -17 3 -23 0 -5 8 -10 16 -10 16 0 20
-16 6 -24 -4 -3 -11 -19 -14 -36 -5 -21 -12 -30 -26 -30 -12 0 -27 -15 -41
-42 -12 -23 -30 -53 -41 -66 -21 -27 -25 -72 -9 -101 7 -14 3 -35 -14 -79 -16
-39 -20 -64 -14 -70 19 -19 4 -47 -27 -52 -22 -4 -31 -12 -33 -28 -2 -12 -15
-29 -30 -36 -45 -24 -77 -67 -118 -160 -25 -56 -47 -92 -61 -98 -15 -7 -25
-26 -33 -60 -7 -27 -23 -62 -37 -79 -14 -16 -33 -46 -43 -66 -18 -38 -18 -38
6 -60 19 -18 23 -29 18 -50 -10 -42 -80 -101 -72 -60 5 20 -38 10 -66 -16 -25
-23 -52 -78 -38 -76 4 0 16 4 27 8 24 10 45 -4 45 -29 0 -12 12 -22 33 -29 30
-10 34 -15 32 -44 -4 -60 -54 -147 -85 -147 -23 0 -40 -20 -40 -47 0 -19 -5
-23 -31 -23 -24 0 -32 -6 -40 -30 -6 -16 -14 -30 -17 -31 -4 0 -20 -2 -35 -3
-16 -1 -36 -12 -46 -24 -9 -13 -28 -29 -41 -35 -37 -19 -35 -36 5 -52 41 -18
40 -23 -31 -98 -11 -12 -24 -42 -28 -67 -4 -24 -14 -52 -23 -62 -21 -24 -9
-22 52 7 42 20 51 21 53 8 2 -8 -10 -34 -27 -58 -17 -24 -31 -47 -31 -51 0
-14 -81 -84 -97 -84 -20 0 -11 -24 11 -28 10 -2 23 4 30 13 6 9 30 19 53 22
23 3 50 14 59 24 11 12 31 19 54 19 21 0 43 6 49 14 6 7 32 16 57 19 24 2 53
12 63 21 10 9 24 16 33 16 8 0 26 9 40 19 13 11 41 22 61 26 20 4 41 13 48 21
6 7 27 16 48 20 20 4 47 15 60 25 13 11 31 19 41 19 9 0 27 9 40 20 13 11 32
20 42 20 10 0 31 8 46 18 15 10 36 23 47 28 51 28 23 49 -117 89 -26 8 -82 37
-124 65 -75 51 -79 52 -131 45 l-53 -6 0 35 c0 56 35 123 168 321 17 27 32 58
32 70 0 11 11 41 25 66 18 34 23 56 19 81 -5 31 0 41 48 99 30 35 61 75 70 87
9 13 68 77 131 143 l116 119 63 0 c68 0 105 18 147 72 26 32 135 90 164 86 20
-3 22 -9 25 -88 2 -46 7 -89 12 -95 18 -21 90 -4 108 26 13 21 8 59 -9 59 -11
0 -12 27 0 34 4 3 19 -3 31 -14 13 -11 27 -20 31 -20 12 0 39 43 39 62 0 20
-32 75 -85 144 -45 58 -45 89 -3 112 17 9 59 36 94 59 130 87 251 133 366 141
101 6 112 -2 105 -78 -2 -30 -16 -80 -30 -110 -31 -68 -71 -250 -58 -263 20
-20 40 5 99 125 54 110 68 131 140 201 l81 77 80 0 c44 0 82 4 85 9 9 15 55
19 72 7 14 -11 14 -16 1 -46 -8 -19 -21 -62 -30 -95 -29 -116 -139 -380 -199
-476 -15 -25 -28 -50 -28 -54 0 -4 -17 -30 -37 -58 -59 -80 -78 -106 -137
-192 -31 -44 -76 -98 -101 -120 -25 -22 -45 -43 -45 -47 0 -12 38 -10 45 2 4
6 21 17 38 25 46 22 74 39 95 58 10 10 22 17 26 17 4 0 26 15 49 33 23 18 53
41 67 50 14 9 50 34 80 54 30 20 66 48 80 61 14 14 41 35 60 47 19 13 50 37
69 54 19 17 37 31 41 31 3 0 24 16 46 36 21 19 77 68 124 107 237 199 575 547
746 769 125 162 129 168 292 414 7 10 19 33 28 49 8 17 26 48 39 70 13 22 31
54 40 70 8 17 19 37 24 45 4 8 17 35 29 60 11 25 37 79 56 120 20 41 39 90 42
107 4 18 13 38 20 44 8 6 14 23 14 38 0 14 9 40 20 56 11 17 20 40 20 51 0 12
9 41 20 65 11 24 20 57 20 72 0 15 6 40 14 55 8 15 18 59 24 97 6 39 15 88 21
110 11 44 26 186 41 395 8 108 7 151 -4 215 -8 44 -18 125 -22 180 -4 55 -11
109 -16 119 -6 10 -14 50 -19 87 -5 38 -15 82 -24 98 -8 17 -15 45 -15 63 0
18 -9 50 -20 71 -11 20 -20 46 -20 57 0 11 -9 37 -20 57 -11 21 -20 45 -20 53
0 9 -9 33 -20 55 -11 22 -20 44 -20 51 0 6 -7 17 -15 24 -8 7 -15 23 -15 35 0
12 -9 34 -20 48 -11 14 -20 31 -20 39 0 7 -7 24 -17 37 -15 23 -43 72 -86 156
-12 22 -36 60 -54 84 -18 24 -33 48 -33 54 0 5 -15 28 -33 51 -19 23 -55 72
-81 111 -26 38 -51 72 -55 75 -3 3 -26 30 -51 60 -24 30 -105 116 -180 191
-74 75 -184 187 -245 249 -60 62 -148 144 -195 183 -47 39 -92 77 -100 84 -21
18 -133 105 -160 123 -12 8 -47 34 -77 58 -31 23 -59 42 -63 42 -5 0 -16 7
-25 16 -21 22 -144 104 -155 104 -5 0 -21 10 -37 23 -34 27 -60 43 -93 59 -14
7 -33 18 -43 27 -20 16 -45 32 -102 61 -60 31 -83 45 -103 63 -10 10 -25 17
-34 17 -8 0 -26 8 -39 19 -13 10 -35 22 -49 26 -14 4 -32 13 -40 20 -23 18
-118 65 -133 65 -8 0 -22 9 -32 20 -10 11 -28 20 -40 20 -12 0 -30 9 -40 20
-10 11 -26 20 -35 20 -10 0 -29 9 -43 20 -14 11 -34 20 -45 20 -11 0 -25 7
-32 15 -7 8 -31 20 -54 26 -22 6 -48 17 -56 24 -8 7 -29 16 -47 20 -17 3 -37
12 -43 20 -6 7 -26 16 -44 19 -19 4 -39 13 -45 20 -7 8 -28 17 -49 21 -20 4
-51 15 -68 26 -17 10 -40 19 -51 19 -12 0 -26 7 -33 15 -7 8 -28 17 -49 21
-20 4 -50 15 -67 25 -17 11 -42 19 -55 19 -13 0 -37 9 -54 20 -16 11 -41 20
-55 20 -14 0 -42 9 -63 20 -20 11 -45 20 -55 20 -9 0 -34 9 -55 20 -20 11 -49
20 -65 20 -15 0 -43 8 -62 19 -19 10 -54 22 -77 25 -23 4 -59 16 -80 27 -20
10 -49 19 -63 19 -14 0 -43 9 -65 20 -22 11 -53 20 -70 20 -16 0 -43 9 -60 20
-17 11 -47 20 -70 20 -22 0 -57 9 -78 20 -20 11 -51 20 -68 20 -16 0 -51 9
-77 19 -26 11 -70 22 -99 25 -29 3 -65 12 -82 20 -16 9 -46 16 -66 16 -20 0
-57 9 -83 19 -26 11 -75 22 -110 25 -34 3 -75 12 -90 20 -15 8 -58 17 -97 21
-38 4 -81 13 -95 20 -14 7 -51 15 -83 19 -45 5 -59 3 -63 -8z m393 -1738 c-2
-13 -4 -3 -4 22 0 25 2 35 4 23 2 -13 2 -33 0 -45z m12 -115 c0 -13 -3 -23 -9
-23 -6 0 -9 23 -9 53 1 44 2 48 9 22 4 -16 8 -40 9 -52z m291 -139 c0 -13 -4
-24 -10 -24 -5 0 -10 6 -10 13 0 6 -3 23 -7 37 -6 22 -5 24 10 11 9 -7 17 -24
17 -37z m3725 -53 c3 -5 1 -12 -5 -16 -5 -3 -10 1 -10 9 0 18 6 21 15 7z m50
-41 c0 -18 -16 -22 -35 -10 -13 9 -13 11 0 20 19 12 35 8 35 -10z m42 -40 c3
-11 11 -20 18 -20 8 0 16 -9 20 -19 3 -11 12 -22 20 -25 8 -3 15 -12 15 -20 0
-7 7 -17 16 -20 12 -4 15 -14 11 -34 -3 -17 4 -45 18 -77 35 -74 45 -130 42
-248 -2 -99 -1 -107 22 -131 21 -22 23 -29 13 -51 -7 -14 -12 -37 -12 -50 0
-13 -5 -27 -11 -31 -7 -4 -9 -21 -4 -48 19 -114 22 -163 10 -202 -7 -25 -9
-48 -4 -57 12 -21 -10 -35 -25 -16 -6 8 -23 22 -38 32 -38 24 -101 161 -94
204 8 56 -11 152 -40 196 -29 44 -30 43 34 78 25 14 29 22 27 55 -2 27 -8 41
-23 47 -23 10 -38 40 -48 94 -3 21 -27 80 -51 132 -48 102 -62 154 -44 165 6
4 21 -5 34 -20 31 -35 45 -25 53 36 7 52 31 69 41 30z m-3347 -81 c0 -5 -7 -9
-15 -9 -15 0 -20 12 -9 23 8 8 24 -1 24 -14z m108 -62 c2 -18 -1 -27 -11 -27
-21 0 -38 25 -31 44 10 26 39 15 42 -17z m-138 -79 c0 -18 -2 -20 -9 -8 -6 8
-7 18 -5 22 9 14 14 9 14 -14z m45 2 c-3 -5 -13 -10 -21 -10 -8 0 -12 5 -9 10
3 6 13 10 21 10 8 0 12 -4 9 -10z m223 -68 c2 -12 -1 -22 -7 -22 -13 0 -32 35
-24 44 12 12 28 0 31 -22z m460 -229 c-4 -22 -22 -20 -26 1 -2 10 3 16 13 16
10 0 15 -7 13 -17z m42 -38 c10 -13 9 -15 -9 -15 -12 0 -21 6 -21 15 0 8 4 15
9 15 5 0 14 -7 21 -15z m-560 -15 c9 -16 8 -20 -5 -20 -8 0 -15 2 -15 4 0 2
-3 11 -6 20 -9 23 13 20 26 -4z m260 4 c0 -17 -23 -44 -39 -44 -19 0 -21 20
-4 39 22 24 43 26 43 5z m145 -24 c11 -17 -5 -32 -21 -19 -7 6 -11 15 -8 20 7
12 21 11 29 -1z m175 -5 c0 -8 -2 -15 -4 -15 -2 0 -6 7 -10 15 -3 8 -1 15 4
15 6 0 10 -7 10 -15z m128 -27 c-6 -18 -28 -21 -28 -4 0 9 7 16 16 16 9 0 14
-5 12 -12z m-718 -94 c13 -33 13 -34 -4 -34 -20 0 -39 27 -32 45 8 23 25 18
36 -11z m820 -94 c0 -5 -2 -10 -4 -10 -3 0 -8 5 -11 10 -3 6 -1 10 4 10 6 0
11 -4 11 -10z m125 0 c-3 -5 -10 -10 -16 -10 -5 0 -9 5 -9 10 0 6 7 10 16 10
8 0 12 -4 9 -10z m-115 -314 c0 -8 9 -16 20 -19 15 -4 20 -14 20 -36 0 -35 37
-66 67 -57 25 8 44 -6 33 -24 -8 -12 -13 -13 -30 -2 -11 7 -31 10 -44 6 -19
-4 -34 4 -72 41 -50 47 -62 81 -49 132 l6 25 24 -27 c14 -14 25 -32 25 -39z
m155 19 c0 -28 -29 -25 -33 3 -3 19 0 23 15 20 10 -2 18 -12 18 -23z m2433
-177 c14 -14 16 -48 4 -48 -20 0 -45 28 -39 44 8 19 19 20 35 4z m-2078 -103
c0 -8 -4 -15 -9 -15 -5 0 -11 7 -15 15 -3 9 0 15 9 15 8 0 15 -7 15 -15z
m-186 -4 c3 -5 -1 -14 -9 -21 -13 -10 -15 -9 -15 9 0 21 14 28 24 12z m-444
-51 c0 -5 -4 -10 -10 -10 -5 0 -10 5 -10 10 0 6 5 10 10 10 6 0 10 -4 10 -10z
m134 -41 c4 -21 1 -28 -20 -37 -33 -16 -41 5 -19 48 18 34 29 31 39 -11z m-94
-5 c0 -16 -5 -24 -12 -21 -20 6 -18 47 3 47 5 0 9 -12 9 -26z m2616 -59 c7
-17 -33 -105 -47 -105 -12 0 -11 77 1 101 13 23 38 25 46 4z m-2083 -30 c22
-20 28 -32 25 -58 -2 -24 -8 -32 -23 -32 -14 0 -24 13 -35 45 -16 43 -16 70
-2 70 4 0 20 -12 35 -25z m-65 -278 c2 -10 -3 -17 -12 -17 -18 0 -29 16 -21
31 9 14 29 6 33 -14z m57 -27 c4 -6 2 -16 -3 -23 -5 -7 -13 -27 -17 -44 -11
-56 -24 -47 -21 14 2 32 4 59 5 61 3 7 31 1 36 -8z m2002 -276 c9 -23 -11 -38
-26 -20 -13 16 -7 36 10 36 5 0 12 -7 16 -16z m-356 -84 c45 -24 61 -55 57
-113 -2 -29 -9 -42 -30 -55 -39 -23 -54 -6 -38 40 11 30 10 39 -14 86 -37 72
-36 73 25 42z m342 -24 c3 -7 -3 -26 -14 -42 -14 -21 -17 -39 -12 -68 7 -46
-16 -73 -48 -55 -25 13 -24 44 1 76 11 14 20 38 20 52 0 42 40 70 53 37z
m-2037 -261 c8 -20 -13 -45 -37 -45 -21 0 -24 12 -9 41 13 23 38 25 46 4z
m1678 -188 c29 -37 34 -77 11 -77 -17 0 -65 67 -65 92 0 29 27 21 54 -15z
m-28 -202 c20 -20 25 -34 22 -63 -5 -56 -30 -54 -67 5 -17 26 -31 56 -31 66 0
26 46 21 76 -8z m-1711 -55 c-3 -5 -11 -10 -16 -10 -6 0 -7 5 -4 10 3 6 11 10
16 10 6 0 7 -4 4 -10z m1806 -70 c28 -15 24 -47 -6 -54 -35 -9 -65 9 -65 39 0
20 5 25 26 25 14 0 34 -5 45 -10z m-2001 -159 c0 -27 -26 -46 -34 -25 -11 29
-6 44 14 44 13 0 20 -7 20 -19z m1848 -24 c12 -11 22 -27 22 -35 0 -8 7 -35
17 -61 22 -64 13 -96 -32 -111 -39 -13 -44 -32 -19 -68 32 -46 5 -82 -51 -68
-38 10 -78 102 -76 177 1 33 6 69 11 79 6 10 10 27 10 37 0 10 13 33 29 51 32
35 49 34 89 -1z m-1858 -97 c0 -5 -5 -10 -11 -10 -5 0 -7 5 -4 10 3 6 8 10 11
10 2 0 4 -4 4 -10z m1784 -282 c22 -31 20 -65 -4 -78 -17 -9 -28 -7 -55 10
l-35 22 0 -46 0 -45 -62 -3 c-57 -3 -63 -5 -66 -25 -2 -13 -7 -23 -11 -23 -17
0 -51 -43 -47 -58 3 -9 6 -72 8 -139 2 -105 0 -125 -14 -140 -16 -16 -18 -16
-37 1 -11 10 -23 37 -27 59 -4 30 -17 52 -42 76 -29 27 -37 43 -43 90 -10 71
-6 85 36 110 19 11 35 25 35 30 0 21 55 40 98 34 41 -5 42 -5 42 23 0 16 4 34
8 40 13 21 74 46 97 40 17 -4 25 0 33 19 15 33 64 35 86 3z m-14 -173 c16 -20
6 -45 -19 -45 -19 0 -41 26 -41 49 0 16 46 13 60 -4z m-700 -225 c0 -22 -20
-26 -38 -8 -19 19 -14 28 13 28 18 0 25 -5 25 -20z m-284 -34 c3 -13 4 -36 2
-52 -3 -25 -10 -31 -67 -50 -48 -17 -71 -20 -94 -13 -24 7 -37 4 -61 -11 -51
-32 -88 -47 -146 -59 -87 -18 -85 -18 -88 10 -3 21 4 28 46 47 26 12 52 22 56
22 4 0 24 8 43 17 29 13 43 15 76 6 33 -9 45 -8 61 3 11 8 33 14 48 14 20 0
36 12 64 45 42 51 51 55 60 21z m-1316 -1180 c0 -16 -37 -32 -48 -21 -7 7 25
35 40 35 4 0 8 -6 8 -14z"/>
<path d="M18084 11589 c-10 -17 23 -46 38 -31 8 8 8 15 -2 27 -15 18 -26 19
-36 4z"/>
<path d="M6437 14020 c-20 -16 -40 -20 -94 -20 -49 0 -80 -6 -108 -20 -22 -11
-55 -20 -75 -20 -19 0 -50 -9 -68 -20 -19 -12 -50 -20 -75 -20 -23 0 -62 -9
-86 -20 -24 -11 -60 -20 -80 -20 -20 0 -49 -9 -66 -20 -17 -11 -47 -20 -70
-20 -22 0 -55 -9 -73 -20 -18 -11 -49 -20 -70 -20 -20 0 -50 -7 -67 -16 -16
-9 -52 -20 -79 -25 -27 -4 -56 -15 -66 -24 -9 -8 -32 -15 -51 -15 -19 0 -51
-8 -72 -19 -20 -10 -52 -22 -70 -25 -18 -3 -51 -15 -72 -26 -22 -11 -50 -20
-64 -20 -13 0 -32 -7 -42 -16 -10 -9 -37 -18 -61 -21 -24 -3 -54 -14 -67 -24
-13 -11 -38 -19 -55 -19 -17 0 -44 -9 -61 -20 -16 -11 -41 -20 -55 -20 -14 0
-38 -9 -55 -20 -16 -11 -41 -20 -53 -20 -13 0 -35 -9 -49 -20 -14 -11 -38 -20
-53 -20 -15 0 -38 -8 -51 -19 -13 -10 -40 -21 -60 -25 -21 -4 -42 -13 -48 -20
-6 -7 -29 -16 -50 -20 -21 -3 -44 -12 -51 -21 -6 -8 -28 -17 -49 -21 -20 -4
-47 -15 -60 -25 -13 -11 -33 -19 -43 -19 -11 0 -31 -9 -45 -20 -14 -11 -35
-20 -45 -20 -11 0 -31 -9 -45 -20 -14 -11 -36 -20 -48 -20 -12 0 -34 -9 -48
-20 -14 -11 -34 -20 -45 -20 -10 0 -27 -9 -37 -20 -10 -11 -28 -20 -40 -20
-12 0 -34 -9 -48 -20 -14 -11 -30 -20 -35 -20 -10 0 -100 -42 -132 -61 -8 -5
-26 -14 -40 -19 -14 -6 -32 -15 -40 -20 -8 -6 -26 -15 -40 -20 -14 -6 -32 -15
-40 -20 -8 -6 -33 -19 -55 -30 -22 -11 -47 -24 -55 -29 -8 -5 -22 -12 -30 -15
-8 -3 -33 -17 -55 -31 -22 -14 -51 -30 -65 -36 -14 -6 -32 -15 -40 -20 -8 -5
-29 -16 -46 -24 -17 -7 -36 -21 -44 -29 -7 -9 -20 -16 -29 -16 -9 0 -26 -7
-36 -15 -43 -33 -111 -75 -121 -75 -6 0 -18 -7 -25 -16 -7 -9 -22 -20 -34 -25
-11 -5 -40 -23 -65 -39 -25 -16 -54 -34 -65 -39 -12 -5 -27 -16 -34 -25 -7 -9
-22 -16 -32 -16 -10 0 -21 -4 -24 -10 -3 -5 -50 -39 -103 -75 -53 -36 -124
-85 -157 -109 -33 -25 -78 -57 -100 -73 -22 -15 -65 -47 -95 -70 -30 -24 -66
-51 -78 -60 -13 -10 -31 -25 -40 -33 -10 -9 -36 -29 -60 -45 -24 -15 -46 -33
-50 -40 -4 -6 -36 -35 -72 -65 -179 -147 -380 -344 -572 -560 -66 -74 -132
-148 -147 -165 -15 -16 -45 -55 -66 -85 -21 -30 -55 -75 -75 -100 -20 -25 -54
-74 -76 -108 -21 -35 -49 -77 -62 -93 -13 -16 -33 -46 -45 -68 -24 -43 -92
-158 -107 -181 -6 -8 -14 -26 -20 -40 -5 -14 -14 -32 -20 -40 -18 -29 -90
-184 -90 -196 0 -6 -6 -17 -14 -23 -8 -7 -17 -30 -21 -51 -4 -21 -13 -44 -21
-51 -8 -6 -14 -23 -14 -38 0 -14 -9 -39 -20 -56 -11 -16 -20 -44 -20 -60 0
-17 -7 -40 -15 -52 -8 -12 -18 -43 -22 -70 -3 -26 -12 -57 -19 -68 -6 -11 -15
-49 -19 -85 -4 -36 -13 -80 -21 -99 -8 -18 -14 -61 -15 -95 0 -33 -5 -86 -10
-116 -5 -30 -14 -117 -20 -194 -9 -116 -8 -152 5 -225 8 -47 18 -129 22 -181
3 -52 12 -113 19 -135 8 -22 16 -64 20 -94 3 -30 13 -67 21 -82 7 -15 14 -43
14 -61 0 -18 9 -50 20 -71 11 -20 20 -44 20 -52 0 -9 9 -33 20 -55 11 -22 20
-48 20 -59 0 -11 7 -32 15 -48 9 -15 20 -39 25 -53 6 -14 14 -32 19 -40 4 -8
18 -37 31 -65 13 -27 27 -57 32 -65 4 -8 17 -33 28 -55 22 -45 75 -136 104
-181 11 -16 45 -67 75 -114 134 -205 440 -556 635 -729 34 -29 77 -68 98 -87
29 -27 251 -207 333 -269 10 -8 24 -15 30 -15 7 0 20 -9 30 -20 16 -18 95 -76
144 -105 9 -5 41 -27 72 -48 31 -20 61 -37 66 -37 6 0 13 -7 17 -15 3 -8 16
-20 28 -25 13 -6 43 -24 68 -40 25 -16 59 -36 75 -45 17 -8 48 -26 70 -39 22
-14 54 -32 70 -40 17 -9 48 -27 70 -41 22 -13 51 -29 65 -36 14 -6 32 -15 40
-20 8 -5 26 -14 40 -20 14 -6 32 -15 40 -20 8 -5 26 -15 40 -21 14 -7 36 -20
49 -30 13 -10 34 -18 47 -18 12 0 26 -5 30 -11 3 -6 25 -19 49 -29 24 -10 46
-23 49 -29 4 -6 16 -11 27 -11 11 0 41 -11 67 -25 26 -14 52 -25 58 -25 6 0
17 -7 24 -15 7 -8 27 -17 46 -21 18 -3 38 -12 45 -20 6 -7 27 -16 48 -20 20
-4 47 -15 60 -25 13 -11 31 -19 40 -19 9 0 30 -9 46 -20 17 -11 39 -20 50 -20
11 0 34 -9 50 -20 17 -11 44 -20 61 -20 17 0 43 -9 57 -20 14 -11 36 -20 50
-20 13 0 36 -9 50 -20 14 -11 40 -20 59 -20 18 0 47 -9 63 -20 17 -11 46 -20
66 -20 21 0 47 -8 62 -20 14 -11 38 -20 54 -20 15 0 42 -9 58 -20 17 -11 44
-20 60 -20 17 0 46 -8 65 -19 19 -10 56 -21 81 -25 26 -4 55 -13 65 -21 11 -8
35 -15 54 -15 19 0 51 -8 70 -19 19 -10 59 -21 89 -25 29 -4 63 -14 75 -21 13
-8 48 -17 80 -20 31 -3 74 -14 94 -25 20 -11 53 -20 72 -20 20 0 53 -9 75 -20
23 -12 59 -20 88 -20 28 0 64 -8 87 -20 24 -12 59 -20 90 -20 31 0 66 -8 90
-20 26 -13 59 -20 97 -20 39 0 71 -7 96 -20 45 -24 137 -28 137 -6 0 8 -5 18
-10 21 -18 11 -120 143 -120 155 0 7 -9 23 -20 37 -11 14 -20 31 -20 38 0 7
-6 18 -14 24 -8 7 -18 27 -21 44 -4 18 -13 39 -20 47 -7 8 -15 31 -19 51 -4
21 -13 42 -21 49 -9 7 -15 30 -15 54 0 23 -9 58 -20 79 -14 26 -20 56 -20 105
0 48 -5 75 -17 92 -16 23 -18 58 -18 370 0 306 2 350 18 388 12 30 17 70 17
140 0 75 5 107 20 141 11 24 20 62 20 85 0 23 9 60 20 81 11 22 23 67 27 100
3 33 12 72 19 87 8 15 14 54 14 87 0 33 4 62 9 65 5 3 11 33 13 65 3 37 11 67
21 79 10 11 17 35 17 59 0 27 6 46 20 58 14 13 20 31 20 59 0 29 6 47 20 59
14 12 20 29 20 61 0 30 5 46 16 50 11 4 14 17 12 53 -4 66 -28 70 -28 4 0 -39
-4 -51 -15 -51 -8 0 -15 9 -15 20 0 11 -6 20 -13 20 -23 0 -25 -10 -10 -41 11
-23 13 -38 5 -67 l-10 -37 -1 48 c-1 58 -24 73 -53 37 -17 -21 -20 -22 -35 -7
-14 13 -14 20 -3 46 7 17 10 38 6 46 -3 9 4 24 18 36 16 14 22 27 18 41 -5 22
12 38 41 38 10 0 30 13 45 30 19 20 31 27 41 21 8 -5 20 -7 27 -4 7 2 17 -5
23 -16 15 -27 38 -17 51 24 6 18 18 39 26 45 7 7 14 24 14 37 0 14 6 37 14 51
8 15 17 43 21 63 3 21 12 42 20 49 8 7 15 27 15 45 0 20 6 35 15 39 9 3 15 18
15 37 0 17 9 42 19 55 11 14 17 33 14 44 -6 24 -22 26 -28 5 -16 -50 -17 -51
-29 -24 -6 14 -16 24 -23 22 -31 -11 -153 84 -153 119 0 19 -20 38 -41 38 -14
0 -18 14 -23 88 -4 48 -7 101 -9 118 -1 17 -8 39 -16 48 -19 22 4 68 63 126
25 24 46 50 46 57 0 7 11 15 25 19 24 6 36 34 15 34 -13 0 -13 37 0 45 5 3 20
-1 32 -9 12 -9 28 -16 36 -16 11 0 49 36 107 102 19 22 21 27 24 56 0 6 6 12
11 12 6 0 23 11 38 25 31 29 42 31 42 10 0 -8 5 -15 10 -15 6 0 10 4 10 9 0
18 58 95 104 141 25 24 46 50 46 57 0 6 9 28 21 47 15 25 19 44 14 65 -4 21
-1 33 10 43 32 26 70 70 70 81 1 7 6 25 13 40 7 16 12 34 12 41 0 21 -27 38
-49 31 -28 -9 -33 7 -16 55 19 53 19 56 -1 64 -22 9 -52 -20 -56 -52 -2 -18
-10 -28 -28 -32 -16 -4 -26 -14 -28 -28 -2 -12 -14 -30 -27 -40 -12 -10 -24
-27 -26 -38 -3 -14 -14 -20 -42 -22 -35 -3 -37 -5 -37 -40 0 -44 -8 -58 -35
-63 -14 -3 -20 -12 -20 -29 0 -22 4 -25 38 -26 21 0 45 -8 54 -17 16 -16 16
-18 1 -33 -9 -9 -32 -17 -52 -17 -43 -1 -94 40 -103 83 -3 17 -11 30 -18 30
-22 0 -26 -32 -8 -58 10 -13 23 -34 30 -45 6 -11 19 -24 27 -29 9 -5 16 -13
16 -19 0 -5 15 -26 34 -45 23 -24 39 -32 51 -28 13 5 16 2 13 -12 -3 -16 -11
-18 -43 -16 -22 2 -45 8 -52 14 -9 7 -20 6 -38 -6 -24 -15 -25 -21 -19 -66 6
-46 5 -50 -14 -50 -23 0 -52 35 -52 61 0 10 -5 19 -11 21 -9 3 -9 12 -2 34 8
24 15 29 43 29 39 0 49 18 25 45 -9 10 -27 38 -40 61 -12 24 -27 45 -32 46
-16 6 -24 -56 -11 -77 10 -15 10 -22 0 -32 -11 -11 -16 -9 -28 6 -8 11 -12 27
-9 37 3 9 -1 22 -10 29 -8 7 -15 24 -15 38 0 24 -1 24 -18 9 -17 -16 -38 -16
-74 -2 -10 4 -18 3 -18 -3 0 -6 9 -13 19 -17 23 -7 42 -55 34 -84 -7 -26 -35
-27 -74 -4 -35 21 -45 13 -33 -29 7 -22 16 -33 29 -34 40 -2 45 -4 45 -19 0
-22 -48 -38 -92 -31 -29 5 -40 2 -50 -12 -7 -10 -21 -21 -30 -25 -10 -3 -18
-15 -18 -25 0 -10 -7 -27 -15 -38 -8 -10 -15 -29 -15 -40 0 -12 -7 -27 -15
-34 -8 -7 -15 -28 -15 -46 0 -22 -15 -59 -42 -104 -35 -59 -46 -70 -69 -70
-15 0 -32 7 -39 15 -19 22 -30 18 -30 -11 0 -17 6 -28 20 -31 11 -3 20 -9 20
-14 0 -13 -17 -11 -26 2 -9 15 -24 -9 -24 -38 0 -28 -32 -45 -66 -37 -22 6
-26 4 -21 -9 3 -8 0 -23 -7 -33 -13 -17 -15 -17 -39 -1 -32 21 -37 21 -37 2 0
-14 11 -19 35 -16 11 1 15 -12 18 -64 2 -27 -1 -30 -30 -30 -39 0 -50 -10 -33
-30 10 -13 10 -19 -3 -33 -9 -10 -14 -27 -11 -39 3 -11 1 -24 -5 -27 -14 -9
-14 -90 -1 -136 12 -43 5 -70 -20 -70 -10 0 -22 -4 -25 -10 -3 -5 -15 -10 -25
-10 -13 0 -26 -13 -37 -37 -9 -21 -19 -41 -21 -45 -2 -5 16 -8 40 -8 l43 0
-29 -15 c-31 -17 -50 -19 -42 -7 3 5 -21 9 -52 10 -60 1 -88 -13 -111 -56 -14
-26 -24 -27 -45 -7 -20 21 -26 19 -23 -7 3 -31 -22 -33 -58 -4 l-30 24 23 24
c23 26 29 67 11 85 -7 7 -23 8 -47 2 -52 -12 -56 -11 -86 12 -19 15 -24 25
-17 32 7 7 16 5 30 -7 17 -15 19 -15 25 -1 11 29 7 43 -14 50 -14 4 -20 15
-20 35 0 19 -6 31 -19 35 -39 12 -35 81 8 119 27 25 27 44 -1 48 -31 4 -32 42
-2 46 16 2 23 -4 28 -22 3 -15 10 -26 14 -26 14 0 42 62 42 94 0 45 11 52 26
16 7 -16 18 -30 24 -30 14 0 13 46 -2 69 -15 24 -3 53 19 49 13 -3 17 -12 16
-33 -2 -20 6 -40 22 -60 26 -31 35 -20 13 15 -19 29 7 44 39 23 32 -21 37 -12
16 26 -11 19 -26 31 -39 31 -25 0 -49 24 -40 39 4 6 13 8 20 5 14 -5 40 15 49
38 4 9 8 9 14 3 14 -17 53 -36 53 -26 0 6 -4 12 -8 15 -4 2 -6 23 -4 45 4 35
7 41 28 41 28 0 31 12 8 35 -29 29 -65 15 -90 -35 -13 -25 -24 -43 -24 -40 -1
3 -3 13 -5 23 -2 10 -11 29 -20 43 -14 22 -14 25 0 30 22 9 18 50 -7 74 -26
24 -27 24 -58 3 -46 -31 -48 -53 -4 -53 17 0 24 -5 24 -20 0 -16 -7 -20 -30
-20 -23 0 -33 -6 -40 -24 -15 -40 -80 -46 -80 -7 0 10 -13 27 -30 39 -29 22
-29 22 -40 2 -6 -11 -19 -20 -28 -20 -20 0 -62 50 -62 73 0 8 -7 20 -15 27
-18 15 -62 0 -71 -25 -9 -23 -39 -18 -73 12 -32 28 -40 60 -20 80 7 7 7 13 1
17 -6 3 -13 2 -17 -4 -10 -16 -22 -12 -28 11 -3 11 2 36 11 54 14 27 22 33 39
28 18 -4 23 0 29 22 4 15 1 36 -6 50 -10 19 -9 27 6 49 17 27 17 28 -9 52 -15
14 -27 31 -27 39 0 8 -4 15 -10 15 -5 0 -10 -5 -10 -11 0 -15 -26 -39 -42 -39
-25 0 -38 23 -38 66 0 23 -6 54 -14 69 -9 18 -11 35 -6 49 6 17 15 21 50 18
26 -1 39 1 35 8 -3 5 -1 18 4 28 8 16 4 21 -25 36 -28 13 -34 20 -29 36 5 16
0 22 -22 31 -34 13 -43 25 -43 64 0 20 7 35 22 44 l22 14 -22 17 c-22 18 -33
75 -18 98 4 7 1 12 -8 12 -9 0 -13 -6 -10 -13 3 -8 -2 -20 -11 -27 -20 -17
-19 -32 5 -53 11 -9 17 -23 14 -32 -7 -18 -18 -19 -44 -5 -15 8 -17 16 -11 33
10 27 2 89 -13 99 -19 12 5 23 52 23 46 0 47 0 50 35 1 19 8 47 14 63 8 21 8
31 -3 45 -52 64 -63 126 -25 143 13 6 37 38 56 75 38 73 41 75 127 88 49 7 53
10 58 40 4 17 1 44 -5 60 -9 25 -8 32 11 53 29 30 38 29 36 -4 -1 -19 3 -28
16 -31 10 -2 17 3 17 12 0 9 9 16 20 16 19 0 20 -4 13 -52 -4 -29 -7 -64 -7
-78 -1 -14 -7 -30 -15 -36 -23 -18 5 -27 44 -13 28 10 39 10 59 0 23 -13 46
-9 46 8 0 4 -18 14 -40 21 -30 10 -40 19 -40 35 0 25 18 45 39 45 20 0 57 -55
53 -76 -2 -8 2 -22 8 -29 7 -8 11 -52 11 -104 0 -107 20 -171 68 -226 l32 -37
29 32 c39 43 43 85 13 121 -23 27 -23 30 -8 53 9 13 26 26 38 30 24 6 14 22
-18 28 -32 5 -31 36 2 40 29 3 30 7 17 59 -5 23 -2 27 21 33 27 7 55 -7 55
-27 0 -5 10 -30 22 -54 18 -36 26 -44 45 -40 16 3 27 -3 38 -19 10 -16 25 -24
45 -24 16 0 32 -5 35 -10 3 -6 20 -17 38 -26 l31 -17 -27 32 c-15 18 -27 38
-27 44 0 8 -3 8 -12 -1 -16 -16 -44 1 -63 38 -26 50 -17 88 14 58 10 -11 16
-8 30 11 l18 23 62 -45 c34 -25 79 -54 101 -63 22 -10 40 -21 40 -25 0 -18 34
-39 64 -39 17 0 36 -4 42 -9 12 -12 63 -16 96 -7 16 5 35 3 49 -5 14 -7 79
-13 167 -15 79 -2 161 -8 182 -14 39 -11 74 -5 64 11 -3 5 -13 9 -22 9 -9 1
-35 16 -56 34 l-39 33 31 39 c17 22 40 58 52 82 17 32 28 42 43 40 30 -4 65
-73 58 -112 -6 -29 -10 -31 -58 -36 -65 -7 -73 -14 -35 -34 17 -9 33 -27 36
-41 11 -42 80 -64 214 -70 53 -2 62 0 62 15 0 30 -40 109 -60 120 -11 6 -20
16 -20 23 0 16 -38 88 -88 167 -23 36 -50 83 -60 105 -26 56 -176 205 -244
243 -31 17 -76 35 -100 38 -24 4 -52 13 -64 21 -12 7 -29 11 -38 7 -8 -3 -32
3 -51 15 -31 18 -57 22 -183 25 -81 3 -168 8 -193 12 l-46 6 18 38 c19 39 78
93 121 109 14 5 65 12 114 16 69 6 101 4 143 -9 60 -18 91 -20 91 -8 0 13 -48
32 -81 32 -16 0 -44 7 -62 17 -18 9 -54 18 -82 20 -57 5 -90 27 -65 43 8 6 24
8 36 5 15 -3 24 2 32 19 13 30 92 51 154 41 105 -16 278 -83 423 -162 127 -69
225 -113 253 -113 24 0 41 -10 71 -40 31 -32 46 -40 74 -40 23 0 41 -6 49 -18
7 -10 28 -27 46 -37 17 -11 32 -26 32 -34 0 -8 18 -36 41 -63 28 -34 38 -54
34 -68 -4 -13 1 -24 20 -36 29 -19 32 -49 9 -82 -12 -18 -14 -29 -6 -50 6 -15
10 -67 10 -117 -1 -81 -4 -94 -29 -132 -23 -35 -25 -44 -13 -54 18 -15 18 -35
-1 -43 -16 -6 -21 -61 -6 -70 5 -3 23 -3 40 0 26 5 30 10 25 26 -3 11 1 27 10
37 11 12 17 38 18 74 1 36 6 58 15 61 21 8 15 55 -12 90 -30 39 -31 46 -6 46
24 0 32 32 18 71 -11 28 -10 33 11 46 12 9 22 19 22 24 0 5 -21 28 -46 53 -26
25 -43 49 -40 55 10 16 -3 51 -19 51 -8 0 -19 8 -24 19 -8 14 -6 23 9 36 11
10 20 24 20 32 0 9 6 12 19 8 10 -3 24 1 31 10 9 11 22 14 42 10 31 -7 35 3
17 38 -7 11 -13 53 -15 92 -3 99 -54 205 -98 205 -3 0 -6 -11 -6 -25 0 -14 -2
-25 -4 -25 -14 0 -75 43 -80 56 -3 8 -17 19 -32 24 -22 9 -29 7 -41 -10 -8
-11 -21 -20 -29 -20 -8 0 -14 -6 -14 -14 0 -8 -4 -17 -9 -21 -14 -8 -41 24
-41 49 0 13 -12 31 -30 44 -16 12 -55 54 -86 93 -54 68 -56 73 -52 120 4 37 2
49 -8 49 -8 0 -14 -6 -14 -14 0 -20 -31 -29 -47 -13 -10 10 -11 20 -4 40 9 22
7 29 -13 44 -13 11 -42 27 -65 37 -35 16 -45 17 -65 7 -20 -11 -28 -10 -49 4
-15 9 -31 14 -37 10 -5 -3 -26 0 -46 7 -34 12 -38 11 -52 -10 -9 -14 -25 -22
-41 -22 -15 0 -32 -5 -38 -11 -15 -15 -33 -3 -33 22 0 23 -45 27 -75 5 -35
-24 -122 -41 -147 -29 -42 20 -56 22 -68 7 -17 -19 -66 -18 -74 2 -10 27 -7
34 24 53 25 15 44 17 100 13 59 -4 71 -2 76 12 4 9 4 19 1 22 -7 7 -70 24
-114 31 -36 6 -42 23 -17 44 13 10 19 10 36 0 17 -10 22 -9 34 6 7 10 16 27
20 38 3 11 15 30 26 42 12 13 18 29 14 38 -5 14 -8 14 -33 -2 -16 -10 -31 -22
-35 -28 -4 -5 -8 6 -8 26 0 19 5 40 12 47 9 9 9 17 -1 36 -8 14 -10 36 -6 55
6 28 4 31 -16 31 -17 0 -20 3 -12 11 8 8 7 21 -4 46 -9 22 -12 49 -8 72 5 29
2 41 -14 55 -22 20 -51 15 -51 -8 0 -9 9 -20 20 -26 31 -17 24 -27 -23 -34
-73 -11 -98 12 -56 50 27 24 40 49 46 88 6 42 30 76 52 76 15 0 31 18 31 35 0
2 -14 8 -31 14 -28 10 -31 14 -26 41 5 25 3 30 -13 30 -24 0 -49 35 -43 59 3
12 -6 26 -27 41 -40 28 -39 66 1 62 26 -2 27 -1 19 33 -4 20 -13 42 -20 50 -9
11 -3 18 38 39 47 24 92 71 122 130 8 16 32 38 53 49 20 10 37 23 37 29 0 5
25 34 55 65 30 31 55 59 55 63 0 9 204 189 247 219 20 13 44 32 55 43 10 10
49 39 86 64 37 24 78 52 92 63 14 10 54 35 90 56 36 21 68 44 72 50 4 7 29 22
55 33 28 13 58 36 73 57 14 19 36 38 50 41 14 4 34 12 45 19 11 6 43 20 71 29
28 9 60 23 70 31 13 10 45 14 97 15 68 0 77 2 77 19 0 35 -121 44 -163 11z
m-1389 -1772 c-4 -27 -28 -36 -28 -10 0 20 8 32 22 32 5 0 8 -10 6 -22z m590
-549 c-2 -6 -8 -10 -13 -10 -5 0 -11 4 -13 10 -2 6 4 11 13 11 9 0 15 -5 13
-11z m208 -69 c61 -51 69 -65 51 -93 -17 -26 -5 -77 33 -141 l24 -39 -30 7
c-16 4 -40 16 -54 27 -14 10 -41 30 -62 44 -47 31 -53 43 -35 63 11 13 14 37
12 95 -2 42 1 77 5 77 4 0 29 -18 56 -40z m-460 -31 c10 -17 -13 -36 -27 -22
-12 12 -4 33 11 33 5 0 12 -5 16 -11z m234 -106 c28 -24 38 -39 31 -46 -12
-12 -75 4 -106 27 -19 14 -19 15 -1 35 25 28 29 27 76 -16z m367 -49 c-9 -9
-28 6 -21 18 4 6 10 6 17 -1 6 -6 8 -13 4 -17z m-842 -14 c0 -9 -11 -16 -27
-18 -23 -3 -26 0 -21 18 7 24 48 25 48 0z m595 -16 c28 -26 45 -34 60 -29 15
5 20 2 20 -14 0 -25 -49 -37 -82 -20 -50 26 -89 99 -53 99 8 0 33 -16 55 -36z
m-685 -84 c3 -5 1 -10 -4 -10 -6 0 -11 5 -11 10 0 6 2 10 4 10 3 0 8 -4 11
-10z m836 -21 c7 -14 6 -19 -4 -19 -21 0 -51 26 -43 38 9 15 34 4 47 -19z
m159 -11 c0 -13 -23 -5 -28 10 -2 7 2 10 12 6 9 -3 16 -11 16 -16z m285 -18
c4 -16 11 -32 16 -35 17 -11 10 -45 -9 -45 -34 0 -75 71 -57 99 13 23 43 11
50 -19z m132 -174 c-8 -20 -36 -21 -43 -1 -4 8 0 22 7 31 11 13 14 13 27 0 8
-8 12 -22 9 -30z m-1867 -116 c0 -5 -4 -10 -10 -10 -5 0 -10 5 -10 10 0 6 5
10 10 10 6 0 10 -4 10 -10z m800 -139 c0 -6 -5 -13 -10 -16 -15 -9 -43 3 -35
15 8 13 45 13 45 1z m291 -116 c19 -13 44 -29 56 -34 25 -12 37 -42 27 -73
-22 -72 -109 -161 -165 -171 -13 -3 -44 -10 -68 -17 -43 -11 -71 -8 -32 5 12
4 23 18 26 33 10 47 30 77 53 80 27 4 46 45 37 79 -3 13 -1 32 5 43 8 14 8 26
0 40 -23 44 10 52 61 15z m-123 -18 c18 -38 4 -55 -35 -41 -28 10 -39 33 -29
60 9 25 49 12 64 -19z m425 -302 c-6 -17 -25 -15 -31 3 -2 7 5 12 17 12 14 0
19 -5 14 -15z m273 -602 c-10 -10 -19 5 -10 18 6 11 8 11 12 0 2 -7 1 -15 -2
-18z m-136 -93 c0 -5 -4 -10 -10 -10 -5 0 -10 5 -10 10 0 6 5 10 10 10 6 0 10
-4 10 -10z m50 -120 c0 -5 -5 -10 -11 -10 -5 0 -7 5 -4 10 3 6 8 10 11 10 2 0
4 -4 4 -10z m-440 -210 c0 -24 -25 -33 -40 -14 -10 11 -10 17 0 28 15 19 40
10 40 -14z m-1672 -41 c-2 -6 -8 -10 -13 -10 -5 0 -11 4 -13 10 -2 6 4 11 13
11 9 0 15 -5 13 -11z m1812 -68 c0 -5 -7 -11 -15 -15 -8 -3 -15 -12 -15 -19 0
-24 -36 -57 -61 -56 -22 1 -20 3 18 14 10 3 10 10 1 30 -14 30 0 46 33 38 10
-3 19 0 19 6 0 6 5 11 10 11 6 0 10 -4 10 -9z m-1880 -141 c0 -5 -4 -10 -10
-10 -5 0 -10 5 -10 10 0 6 5 10 10 10 6 0 10 -4 10 -10z m180 -133 c0 -13 -9
-32 -20 -42 -18 -16 -20 -16 -26 -1 -11 28 4 66 26 66 14 0 20 -7 20 -23z
m225 -11 c12 -9 16 -19 11 -32 -7 -18 -8 -17 -26 6 -31 40 -23 54 15 26z m-55
-23 c0 -10 -4 -24 -9 -32 -8 -12 -12 -12 -25 -2 -26 21 -20 51 9 51 17 0 25
-5 25 -17z m189 -79 c17 -4 31 -13 31 -20 0 -17 -22 -18 -38 -2 -9 9 -12 9
-12 0 0 -7 -11 -12 -25 -12 -27 0 -28 1 -19 24 7 18 16 19 63 10z m-139 -59
c0 -25 -5 -45 -10 -45 -6 0 -9 20 -8 45 0 25 5 45 10 45 4 0 8 -20 8 -45z
m-128 3 c-7 -7 -12 -8 -12 -2 0 14 12 26 19 19 2 -3 -1 -11 -7 -17z m243 -108
c-3 -5 -10 -10 -16 -10 -5 0 -9 5 -9 10 0 6 7 10 16 10 8 0 12 -4 9 -10z m-91
-95 c3 -9 0 -15 -9 -15 -8 0 -15 7 -15 15 0 8 4 15 9 15 5 0 11 -7 15 -15z
m-24 -94 c0 -6 -5 -13 -11 -16 -6 -4 -7 -19 -4 -36 7 -32 4 -34 -26 -19 -23
13 -24 23 -3 55 16 24 44 34 44 16z m-82 -115 c3 -12 -1 -17 -10 -14 -7 3 -15
13 -16 22 -3 12 1 17 10 14 7 -3 15 -13 16 -22z m259 -151 c-2 -32 -5 -35 -33
-35 -26 0 -33 5 -36 24 -6 31 8 46 43 46 25 0 27 -3 26 -35z m-75 -60 c0 -14
1 -31 2 -37 1 -7 -10 -13 -24 -13 -19 0 -26 6 -28 23 -5 34 5 52 28 52 14 0
20 -7 22 -25z m388 -46 c0 -5 -4 -9 -10 -9 -5 0 -10 7 -10 16 0 8 5 12 10 9 6
-3 10 -10 10 -16z m-515 -18 c3 -5 -4 -13 -16 -16 -23 -8 -34 -1 -24 14 8 13
32 14 40 2z m555 -56 c0 -8 -4 -15 -10 -15 -5 0 -10 7 -10 15 0 8 5 15 10 15
6 0 10 -7 10 -15z m-160 -60 c0 -8 -9 -15 -20 -15 -20 0 -26 11 -13 23 12 13
33 7 33 -8z m650 -325 c0 -10 -4 -22 -10 -25 -5 -3 -10 -20 -10 -36 0 -37 -24
-35 -27 2 -1 13 -5 34 -8 46 -6 18 -2 25 16 32 29 11 39 6 39 -19z m101 -163
c-8 -8 -11 -3 -11 19 1 25 2 27 11 11 8 -14 8 -22 0 -30z m-62 -13 c31 -6 31
-7 31 -67 0 -65 -16 -70 -22 -7 -2 27 -8 36 -25 38 -23 3 -24 2 -27 -65 -1
-10 5 -18 12 -18 20 0 32 -26 32 -72 0 -56 -12 -60 -41 -16 -13 21 -34 40 -47
43 -12 3 -38 24 -57 48 -32 41 -33 45 -20 75 12 28 19 33 62 38 26 3 53 7 59
7 6 1 26 -1 43 -4z"/>
<path d="M5841 11567 c-1 -10 -8 -20 -16 -23 -18 -7 -20 -24 -2 -24 27 0 38
16 28 41 -7 18 -10 19 -10 6z"/>
<path d="M5205 12610 c-7 -12 2 -30 16 -30 5 0 9 9 9 20 0 21 -15 27 -25 10z"/>
<path d="M13884 12223 c-8 -32 6 -57 35 -61 26 -4 29 -39 4 -44 -27 -5 61 -48
97 -48 25 0 66 -13 120 -40 8 -4 16 -17 18 -29 2 -12 16 -28 31 -35 18 -10 32
-29 41 -55 15 -48 27 -53 32 -13 4 34 48 47 48 14 0 -32 11 -52 29 -52 9 0 38
-23 65 -51 41 -43 47 -54 42 -79 -3 -20 0 -34 11 -46 14 -13 14 -19 4 -37 -11
-17 -10 -21 4 -30 10 -5 26 -18 36 -28 11 -11 25 -17 31 -13 7 5 5 12 -7 21
-24 16 -29 51 -14 81 13 23 38 29 55 13 5 -6 16 -4 28 4 16 12 17 17 6 30 -17
20 -114 85 -127 85 -6 0 -22 11 -37 25 -15 14 -31 25 -36 25 -5 0 -16 13 -25
29 -9 18 -28 34 -50 41 -29 10 -35 16 -35 39 0 23 -11 36 -60 70 -33 22 -65
41 -70 41 -4 0 -21 10 -37 23 -15 13 -36 26 -45 30 -10 3 -18 13 -18 21 0 9
-17 25 -37 36 -21 11 -45 24 -53 29 -8 4 -30 13 -48 19 -30 10 -32 9 -38 -15z"/>
<path d="M13752 11978 c-11 -14 -9 -91 3 -120 4 -10 14 -18 22 -18 10 0 13 6
9 16 -3 9 -6 42 -6 75 0 58 -8 71 -28 47z"/>
<path d="M13717 11843 c-6 -9 -10 -56 -8 -95 1 -17 7 -28 15 -28 19 0 22 10
18 75 -4 50 -13 68 -25 48z"/>
<path d="M14196 11755 c5 -30 3 -36 -17 -44 -23 -9 -23 -10 -3 -10 12 -1 24
-8 28 -16 3 -8 10 -15 16 -15 5 0 10 7 10 15 0 8 7 15 15 15 22 0 19 53 -3 73
-10 10 -26 17 -36 17 -14 0 -16 -6 -10 -35z"/>
<path d="M13764 11749 c-11 -18 31 -51 68 -53 42 -1 50 12 18 34 -33 23 -77
33 -86 19z"/>
<path d="M14337 11754 c-8 -9 11 -44 24 -44 6 0 9 10 7 22 -3 22 -19 34 -31
22z"/>
<path d="M13677 11703 c-13 -13 -7 -87 11 -124 12 -28 23 -39 40 -39 29 0 28
14 -3 34 -22 15 -25 24 -25 76 0 55 -6 70 -23 53z"/>
<path d="M13885 11680 c3 -5 11 -10 16 -10 6 0 7 5 4 10 -3 6 -11 10 -16 10
-6 0 -7 -4 -4 -10z"/>
<path d="M14633 11664 c-16 -12 -26 -13 -41 -5 -11 6 -22 7 -26 4 -10 -10 -7
-43 4 -43 6 0 10 -7 10 -15 0 -8 6 -15 14 -15 7 0 19 7 26 15 7 8 25 15 41 15
33 0 32 0 19 34 -11 30 -17 31 -47 10z"/>
<path d="M6020 11644 c0 -13 39 -65 74 -100 14 -15 29 -39 32 -53 3 -14 13
-41 22 -60 16 -32 17 -33 20 -11 12 77 -53 210 -102 210 -12 0 -27 5 -34 12
-7 7 -12 8 -12 2z"/>
<path d="M14037 11643 c-8 -13 3 -53 14 -53 6 0 12 7 16 16 6 17 -21 51 -30
37z"/>
<path d="M14834 11639 c-10 -17 13 -36 27 -22 12 12 4 33 -11 33 -5 0 -12 -5
-16 -11z"/>
<path d="M14113 11593 c34 -104 37 -107 68 -70 26 31 24 39 -21 65 -47 27 -54
27 -47 5z"/>
<path d="M14655 11575 c-17 -20 -40 -35 -52 -35 -32 0 -29 -28 3 -42 22 -10
28 -10 40 6 10 14 21 17 47 12 31 -6 35 -4 47 24 11 26 11 34 -1 45 -30 28
-53 25 -84 -10z"/>
<path d="M13636 11574 c-9 -23 -7 -57 4 -74 9 -13 11 -13 20 0 15 24 13 90 -4
90 -8 0 -17 -7 -20 -16z"/>
<path d="M13962 11522 c7 -10 13 -18 14 -20 1 -2 11 5 21 15 19 19 18 19 -14
20 -30 1 -32 -1 -21 -15z"/>
<path d="M14080 11530 c0 -5 5 -10 11 -10 5 0 7 5 4 10 -3 6 -8 10 -11 10 -2
0 -4 -4 -4 -10z"/>
<path d="M14306 11524 c-9 -23 -8 -24 14 -24 23 0 26 13 6 29 -11 9 -15 8 -20
-5z"/>
<path d="M14398 11519 c-17 -10 -18 -41 -1 -46 6 -2 14 8 17 23 8 32 6 35 -16
23z"/>
<path d="M13850 11506 c0 -2 7 -9 15 -16 12 -10 15 -10 15 4 0 9 -7 16 -15 16
-8 0 -15 -2 -15 -4z"/>
<path d="M14715 11484 c-11 -8 -30 -12 -42 -9 -16 4 -23 1 -23 -8 0 -18 -32
-47 -52 -47 -9 0 -21 7 -28 15 -7 8 -21 15 -32 15 -16 0 -19 -5 -14 -22 3 -13
6 -28 6 -35 0 -18 59 -27 87 -12 18 10 29 10 42 2 19 -12 41 -4 79 30 25 23
28 44 9 68 -11 15 -15 15 -32 3z"/>
<path d="M13947 11479 c-17 -10 -16 -12 5 -50 22 -40 38 -50 38 -25 0 8 7 16
14 19 13 5 13 10 0 36 -16 33 -28 37 -57 20z"/>
<path d="M14272 11474 c-12 -8 -22 -21 -22 -28 0 -8 -8 -17 -17 -21 -16 -6
-14 -10 12 -31 51 -41 64 -33 62 36 -1 33 -4 60 -7 60 -3 0 -16 -7 -28 -16z"/>
<path d="M13597 11438 c-5 -39 1 -60 17 -55 18 6 20 87 3 87 -9 0 -17 -13 -20
-32z"/>
<path d="M14120 11460 c0 -5 5 -10 10 -10 6 0 10 -9 10 -20 0 -15 7 -20 25
-20 31 0 33 23 3 44 -26 18 -48 21 -48 6z"/>
<path d="M14062 11394 c1 -9 9 -19 16 -22 9 -3 13 2 10 14 -1 9 -9 19 -16 22
-9 3 -13 -2 -10 -14z"/>
<path d="M13564 11346 c-8 -21 -1 -66 11 -69 6 -1 11 17 13 41 3 41 -12 59
-24 28z"/>
<path d="M14292 11348 c3 -7 15 -15 27 -16 16 -3 22 1 19 10 -3 7 -15 15 -27
16 -16 3 -22 -1 -19 -10z"/>
<path d="M14180 11310 c7 -14 21 -20 43 -20 l32 1 -39 19 c-49 25 -49 25 -36
0z"/>
<path d="M14416 11321 c-7 -11 24 -31 49 -31 8 0 21 -11 27 -25 6 -14 17 -25
25 -25 18 0 17 29 -2 36 -8 4 -13 10 -10 14 3 4 -1 12 -8 18 -19 15 -74 24
-81 13z"/>
<path d="M14030 11304 c0 -8 5 -12 10 -9 6 3 10 10 10 16 0 5 -4 9 -10 9 -5 0
-10 -7 -10 -16z"/>
<path d="M15276 11311 c-4 -7 -5 -15 -2 -18 9 -9 19 4 14 18 -4 11 -6 11 -12
0z"/>
<path d="M14355 11300 c-3 -5 1 -10 9 -10 8 0 18 5 21 10 3 6 -1 10 -9 10 -8
0 -18 -4 -21 -10z"/>
<path d="M14705 11209 c-9 -74 3 -90 34 -49 17 24 21 38 15 63 -6 29 -19 46
-36 47 -3 0 -9 -27 -13 -61z"/>
<path d="M13524 11237 c-7 -20 -2 -47 11 -50 14 -3 19 43 6 56 -7 7 -12 6 -17
-6z"/>
<path d="M14897 11239 c-19 -11 -23 -34 -6 -45 17 -10 43 21 33 39 -7 12 -14
13 -27 6z"/>
<path d="M14256 11231 c-3 -4 9 -24 27 -43 17 -19 37 -43 43 -54 11 -18 13
-18 30 -2 11 9 34 18 52 20 32 3 32 4 17 26 -11 14 -26 22 -47 22 -21 0 -31 6
-35 20 -4 16 -14 20 -44 20 -21 0 -40 -4 -43 -9z"/>
<path d="M14532 11218 c-21 -21 -14 -48 11 -48 20 0 47 32 47 55 0 10 -47 4
-58 -7z"/>
<path d="M15380 11187 c0 -21 26 -51 38 -43 19 12 1 56 -24 56 -8 0 -14 -6
-14 -13z"/>
<path d="M14467 11149 c-9 -6 -17 -17 -17 -24 0 -8 -9 -15 -20 -15 -21 0 -38
-25 -26 -38 4 -3 16 -1 27 6 16 10 25 9 49 -3 17 -9 30 -20 30 -25 0 -6 23
-10 50 -10 41 0 56 -5 76 -26 26 -25 44 -28 52 -6 2 7 -5 15 -17 20 -11 4 -21
12 -22 17 -11 48 -23 57 -47 33 -9 -9 -16 -8 -29 5 -10 8 -30 20 -46 26 -15 6
-27 17 -27 25 0 21 -12 26 -33 15z"/>
<path d="M13485 11140 c-8 -13 4 -50 16 -50 5 0 9 14 9 30 0 30 -13 40 -25 20z"/>
<path d="M14870 11125 c0 -20 -5 -25 -25 -25 -14 0 -24 -5 -22 -11 4 -21 -24
-21 -30 -1 -5 22 -31 19 -46 -5 -4 -7 -15 -13 -23 -13 -33 0 -5 -25 37 -33 24
-4 54 -13 66 -19 18 -9 26 -8 41 5 10 10 28 17 41 17 20 0 21 1 7 28 -10 20
-11 33 -4 46 8 14 7 21 -3 27 -25 15 -39 10 -39 -16z"/>
<path d="M14600 11130 c0 -5 5 -10 10 -10 6 0 10 5 10 10 0 6 -4 10 -10 10 -5
0 -10 -4 -10 -10z"/>
<path d="M13457 11053 c-11 -10 -8 -63 3 -63 6 0 10 16 10 35 0 36 -2 40 -13
28z"/>
<path d="M14550 10980 c0 -13 8 -24 19 -27 11 -3 21 -12 23 -21 2 -12 7 -9 21
11 15 24 15 27 2 27 -9 0 -27 7 -40 16 -24 16 -25 15 -25 -6z"/>
<path d="M14715 10969 c-9 -14 31 -48 57 -49 10 0 34 -17 55 -39 21 -21 48
-44 61 -50 16 -9 21 -18 17 -32 -6 -18 26 -73 43 -75 4 0 14 -3 22 -7 29 -11
126 -15 143 -5 27 14 10 28 -35 28 -25 0 -49 8 -65 20 -14 11 -34 20 -44 20
-24 0 -31 13 -20 42 11 31 -13 68 -45 68 -13 0 -29 9 -36 20 -7 11 -21 20 -30
20 -11 0 -18 8 -18 20 0 16 -6 20 -32 18 -18 -1 -40 2 -49 6 -10 4 -20 2 -24
-5z"/>
<path d="M13411 10942 c-5 -9 -7 -29 -4 -43 4 -20 0 -27 -16 -32 -28 -7 -29
-62 -1 -85 20 -17 20 -17 1 -52 -11 -19 -24 -45 -30 -57 -17 -36 -31 -37 -31
-3 0 25 -4 31 -17 28 -11 -2 -19 -14 -21 -30 -2 -14 -12 -34 -23 -44 -10 -9
-19 -29 -19 -44 0 -15 -7 -33 -15 -40 -8 -7 -15 -25 -15 -41 0 -18 -7 -32 -21
-39 -15 -9 -19 -19 -17 -43 4 -40 32 -44 36 -4 4 31 22 37 22 8 0 -28 11 -32
55 -18 30 9 39 9 43 -1 5 -16 64 -16 81 1 11 10 14 10 18 0 3 -7 15 -13 28
-13 13 0 50 -7 82 -16 32 -8 68 -17 80 -18 12 -2 38 -17 57 -34 19 -16 49 -33
68 -37 18 -4 64 -22 102 -41 39 -19 84 -34 102 -34 17 0 52 -9 78 -21 26 -11
54 -19 64 -18 36 3 51 -2 80 -26 17 -15 42 -25 60 -25 22 0 38 -9 58 -32 44
-53 62 -63 89 -48 20 11 33 9 87 -13 35 -14 73 -29 86 -32 31 -9 28 -25 -5
-26 -16 0 -36 -4 -46 -8 -30 -11 1 -30 67 -41 52 -8 90 -28 146 -76 14 -12 47
-29 73 -39 39 -15 49 -24 54 -46 6 -34 27 -53 48 -46 23 9 29 -12 9 -34 -21
-24 -67 -25 -91 -1 -26 25 -111 67 -119 59 -11 -11 16 -37 39 -37 11 0 39 -16
63 -35 33 -28 49 -34 68 -29 41 10 136 -63 136 -105 0 -18 -36 -12 -55 9 -22
24 -34 18 -28 -15 7 -36 -18 -41 -62 -11 -47 32 -59 33 -53 2 7 -36 -10 -57
-25 -32 -7 11 -20 26 -31 35 -10 9 -44 43 -75 75 -107 113 -151 156 -161 156
-19 0 -10 -20 13 -31 13 -6 43 -40 67 -76 35 -53 43 -75 45 -117 1 -28 8 -63
15 -79 17 -36 10 -41 -39 -27 -53 14 -111 64 -111 96 0 16 -8 28 -22 35 -13 5
-33 25 -44 43 -29 44 -167 166 -188 166 -9 0 -34 9 -54 20 -123 65 -182 87
-262 99 -136 21 -329 6 -420 -32 -43 -18 -125 -32 -163 -28 -50 5 -177 -45
-177 -70 0 -5 16 -19 35 -30 19 -11 37 -29 40 -39 3 -10 25 -31 48 -46 54 -37
133 -116 141 -142 4 -10 18 -24 31 -30 29 -13 35 -56 9 -66 -8 -3 -12 -10 -9
-16 9 -15 25 -12 25 5 0 23 19 18 29 -7 5 -13 29 -36 54 -52 25 -15 47 -35 49
-44 2 -8 19 -21 38 -27 31 -11 35 -16 34 -44 -2 -34 -5 -33 122 -35 17 -1 37
-6 45 -12 20 -15 47 -25 99 -36 59 -12 162 -28 178 -27 18 0 67 0 110 -1 41
-1 110 -19 129 -32 6 -5 23 -6 37 -2 17 4 36 -1 59 -15 19 -12 44 -21 57 -21
12 0 35 -13 50 -30 54 -58 80 -33 61 58 -11 51 -10 63 9 112 12 30 24 63 27
73 10 32 33 17 60 -38 15 -30 30 -55 34 -55 3 0 4 35 2 78 -9 169 -9 177 7
177 9 0 16 -11 18 -28 3 -27 4 -28 22 -12 10 9 24 14 29 10 18 -11 12 -44 -9
-55 -20 -11 -20 -12 -3 -40 17 -29 33 -39 33 -21 0 18 31 41 56 41 25 0 37 25
38 80 1 17 7 26 21 28 25 3 56 -17 38 -25 -7 -2 -13 -9 -13 -14 0 -12 58 -87
84 -110 20 -17 15 -39 -10 -39 -21 0 -17 -24 11 -54 16 -17 34 -26 55 -26 33
0 39 -16 14 -34 -12 -9 -14 -19 -7 -46 9 -34 11 -35 69 -42 80 -9 109 8 100
61 -14 89 -25 125 -40 133 -21 12 -20 25 2 33 9 3 30 16 45 28 36 30 28 61
-14 52 -65 -15 -91 52 -37 94 24 20 25 23 13 58 -15 43 -12 53 15 53 22 0 32
23 24 55 -8 31 -31 39 -44 15 -15 -29 -30 -24 -30 9 0 20 8 34 26 46 21 13 25
22 20 48 -19 120 -22 127 -61 127 -44 0 -50 -14 -32 -69 15 -48 14 -81 -3 -81
-11 0 -34 29 -36 47 -2 8 -12 26 -25 39 -13 14 -19 29 -15 40 4 11 -2 26 -15
40 -12 13 -23 33 -24 46 -1 13 -3 29 -4 36 0 6 -7 12 -15 12 -16 0 -31 17 -40
47 -7 22 -5 23 38 17 44 -6 46 -5 46 17 0 13 3 35 7 48 6 22 4 23 -26 16 -27
-6 -35 -3 -48 14 -12 17 -18 20 -29 10 -8 -6 -14 -18 -14 -26 0 -11 -7 -13
-28 -8 -20 4 -33 1 -42 -10 -21 -25 -33 -18 -26 16 5 27 0 36 -42 77 -27 26
-56 59 -66 74 -17 25 -17 26 4 33 31 10 19 51 -30 98 -46 44 -76 48 -90 12
-10 -26 -24 -32 -35 -16 -6 11 -94 61 -106 61 -5 0 -9 -6 -9 -13 0 -18 -32
-47 -51 -47 -9 0 -24 -7 -35 -15 -16 -13 -17 -16 -4 -25 8 -5 32 -10 53 -10
29 0 37 -4 37 -19 0 -29 -28 -47 -50 -33 -11 6 -26 9 -35 5 -9 -3 -29 4 -45
16 -16 11 -40 21 -53 21 -13 0 -37 4 -53 9 -16 5 -41 12 -56 15 -31 7 -37 30
-12 40 24 9 55 7 97 -8 35 -13 40 -12 65 8 15 11 36 26 47 32 29 16 26 48 -5
52 -14 2 -33 12 -43 23 -10 10 -26 19 -36 19 -10 0 -33 3 -50 6 -44 9 -39 -9
9 -31 50 -23 40 -36 -29 -37 -28 0 -54 -4 -57 -9 -3 -5 -33 -9 -67 -9 -80 0
-63 22 20 26 40 2 59 7 61 16 5 24 -34 49 -85 56 -45 7 -48 9 -45 34 3 24 0
27 -25 25 -27 -2 -28 0 -27 40 0 34 -4 43 -22 52 -17 7 -22 18 -21 38 2 24 -3
29 -35 37 -21 5 -40 17 -43 26 -7 23 -62 42 -135 46 -43 3 -67 9 -73 19 -4 8
-16 15 -26 15 -22 0 -43 22 -39 40 2 7 -10 16 -25 21 -23 6 -30 3 -43 -17 -14
-20 -24 -24 -65 -24 l-49 0 16 25 c8 13 13 29 9 35 -8 13 -42 13 -50 0 -9 -15
-25 -2 -25 21 0 24 -16 25 -29 1z m119 -162 c0 -19 -23 -59 -39 -65 -9 -4 -21
1 -28 11 -17 23 -16 34 2 34 9 0 18 7 21 15 7 16 44 21 44 5z m447 -76 c-3 -3
-12 -4 -19 -1 -8 3 -5 6 6 6 11 1 17 -2 13 -5z m117 -350 c9 -3 14 -10 11 -14
-6 -10 -55 0 -55 11 0 10 21 12 44 3z m362 -134 c8 0 14 -9 14 -20 0 -22 -15
-25 -69 -14 -17 4 -31 11 -31 16 0 12 42 28 58 22 8 -2 20 -4 28 -4z m47 -86
c-3 -15 -18 -15 -37 -1 -28 20 -11 43 17 24 12 -8 21 -18 20 -23z m86 -18 c8
-10 9 -16 2 -21 -14 -8 -53 13 -46 26 9 13 31 11 44 -5z m411 -97 c-12 -22
-40 -26 -40 -4 0 15 30 36 42 29 5 -3 3 -14 -2 -25z m-1290 -274 c35 -18 39
-46 14 -117 -12 -38 -13 -60 -5 -119 9 -69 3 -109 -17 -109 -18 0 -100 59
-123 88 -13 18 -45 55 -70 83 -42 45 -49 49 -66 38 -25 -15 -53 -6 -53 19 0
38 50 58 68 26 8 -14 14 -13 53 12 24 15 54 37 67 48 20 18 70 41 95 45 4 0
21 -6 37 -14z m168 -37 c19 -19 14 -54 -10 -70 -20 -14 -22 -21 -19 -114 l2
-100 -28 -13 c-25 -12 -29 -10 -50 14 -23 26 -27 51 -23 145 4 96 84 182 128
138z m160 -110 c17 -17 15 -58 -2 -58 -29 0 -46 13 -46 34 0 36 24 48 48 24z
m602 -248 c0 -5 -4 -10 -10 -10 -5 0 -10 5 -10 10 0 6 5 10 10 10 6 0 10 -4
10 -10z m-750 -20 c16 0 33 -41 22 -52 -15 -15 -52 1 -61 25 -11 27 -4 40 16
33 8 -3 19 -6 23 -6z m7 -114 c-6 -17 -47 -20 -47 -3 0 9 6 17 13 20 18 6 38
-4 34 -17z"/>
<path d="M6510 10924 c0 -8 5 -12 10 -9 6 3 10 10 10 16 0 5 -4 9 -10 9 -5 0
-10 -7 -10 -16z"/>
<path d="M14765 10850 c-3 -5 1 -10 10 -10 9 0 13 5 10 10 -3 6 -8 10 -10 10
-2 0 -7 -4 -10 -10z"/>
<path d="M15475 10789 c-11 -17 1 -21 15 -4 8 9 8 15 2 15 -6 0 -14 -5 -17
-11z"/>
<path d="M13342 10778 c-15 -15 -16 -55 -1 -63 15 -10 19 -3 26 39 6 37 -3 46
-25 24z"/>
<path d="M14958 10653 c-3 -21 -3 -44 0 -50 7 -21 90 -16 123 8 32 23 36 40
14 59 -20 17 -45 -3 -45 -36 0 -14 -6 -24 -14 -24 -9 0 -12 8 -8 27 3 18 -1
30 -13 40 -34 24 -52 16 -57 -24z"/>
<path d="M14132 10668 c-18 -18 -15 -35 10 -52 33 -23 39 -20 35 21 -3 40 -22
54 -45 31z"/>
<path d="M14900 10640 c0 -5 7 -10 15 -10 8 0 15 5 15 10 0 6 -7 10 -15 10 -8
0 -15 -4 -15 -10z"/>
<path d="M15069 10531 c-24 -24 -30 -37 -25 -56 4 -14 1 -33 -6 -44 -9 -15 -8
-22 5 -35 16 -16 13 -46 -4 -46 -14 0 -11 -20 5 -36 8 -7 12 -23 9 -34 -5 -20
12 -27 32 -12 12 8 14 22 20 115 3 49 0 69 -9 73 -19 7 -7 51 16 57 12 4 18
12 16 23 -5 29 -26 27 -59 -5z"/>
<path d="M15970 10530 c0 -5 5 -10 10 -10 6 0 10 5 10 10 0 6 -4 10 -10 10 -5
0 -10 -4 -10 -10z"/>
<path d="M14912 10508 c4 -30 43 -36 57 -10 13 24 5 32 -31 32 -25 0 -29 -4
-26 -22z"/>
<path d="M15650 10456 c0 -14 2 -26 4 -26 2 0 12 -3 21 -6 13 -6 16 -1 13 22
-4 38 -38 47 -38 10z"/>
<path d="M15450 10412 c-24 -20 -24 -21 -7 -40 15 -16 17 -29 12 -66 -4 -27
-3 -46 2 -46 17 0 35 -51 23 -65 -15 -18 -31 -76 -24 -87 4 -5 17 1 31 13 20
20 23 29 18 61 -4 21 -3 38 3 38 7 0 32 42 32 55 0 3 -11 5 -25 5 -28 0 -30
11 -16 73 7 29 5 42 -8 58 l-17 21 -24 -20z"/>
<path d="M15525 10410 c3 -5 8 -10 11 -10 2 0 4 5 4 10 0 6 -5 10 -11 10 -5 0
-7 -4 -4 -10z"/>
<path d="M15910 10393 c0 -5 4 -14 9 -21 7 -11 9 -11 14 1 3 8 3 18 0 21 -9 8
-23 7 -23 -1z"/>
<path d="M13150 10365 c-15 -18 -6 -45 15 -45 10 0 15 10 15 30 0 33 -11 38
-30 15z"/>
<path d="M13110 10270 c0 -24 15 -27 24 -4 9 22 8 24 -9 24 -8 0 -15 -9 -15
-20z"/>
<path d="M4072 10268 c2 -6 10 -14 16 -16 7 -2 10 2 6 12 -7 18 -28 22 -22 4z"/>
<path d="M6356 10223 c-12 -12 -6 -54 9 -59 15 -6 45 11 45 26 0 11 -47 40
-54 33z"/>
<path d="M15086 10201 c-9 -10 -14 -25 -10 -35 10 -25 20 -19 31 19 12 39 5
45 -21 16z"/>
<path d="M15667 10208 c-9 -5 -17 -13 -17 -18 0 -14 22 -12 43 4 13 11 14 15
4 19 -7 3 -21 1 -30 -5z"/>
<path d="M13074 10199 c-3 -6 -1 -16 5 -22 8 -8 11 -5 11 11 0 24 -5 28 -16
11z"/>
<path d="M14998 10198 c-3 -7 -3 -19 -1 -26 6 -16 33 4 33 24 0 17 -26 18 -32
2z"/>
<path d="M6349 10113 c-4 -12 -17 -23 -29 -25 -35 -5 -48 -33 -26 -57 18 -20
18 -20 43 9 17 21 23 39 21 62 -2 28 -4 29 -9 11z"/>
<path d="M15316 10103 c-15 -20 -24 -24 -47 -19 -21 4 -29 2 -29 -9 0 -7 5
-17 10 -20 18 -11 11 -54 -10 -65 -23 -12 -26 -38 -6 -46 8 -3 27 2 41 12 25
16 28 17 39 2 7 -9 28 -19 48 -23 34 -6 36 -5 43 24 3 17 11 33 16 36 5 4 9
13 9 22 0 15 -2 14 -18 0 -23 -21 -46 -22 -62 -2 -10 13 -10 19 4 33 20 23 20
31 -2 59 l-17 22 -19 -26z"/>
<path d="M15150 10075 c0 -3 8 -17 17 -31 15 -24 18 -25 29 -9 17 23 7 45 -22
45 -13 0 -24 -2 -24 -5z"/>
<path d="M13000 10055 c0 -8 5 -15 10 -15 6 0 10 7 10 15 0 8 -4 15 -10 15 -5
0 -10 -7 -10 -15z"/>
<path d="M15823 10033 c-20 -8 -15 -23 7 -23 11 0 20 7 20 15 0 15 -6 17 -27
8z"/>
<path d="M12966 9991 c-4 -7 -5 -15 -2 -18 9 -9 19 4 14 18 -4 11 -6 11 -12 0z"/>
<path d="M15687 9963 c-4 -3 -7 -11 -7 -17 0 -6 5 -5 12 2 6 6 9 14 7 17 -3 3
-9 2 -12 -2z"/>
<path d="M15155 9940 c-3 -5 1 -10 9 -10 9 0 16 5 16 10 0 6 -4 10 -9 10 -6 0
-13 -4 -16 -10z"/>
<path d="M15826 9925 c4 -8 10 -12 15 -9 14 8 10 24 -6 24 -9 0 -12 -6 -9 -15z"/>
<path d="M15300 9890 c6 -11 8 -25 5 -30 -11 -19 15 -20 34 -1 20 20 19 20 -4
35 -34 23 -48 21 -35 -4z"/>
<path d="M15200 9880 c0 -23 10 -26 28 -8 18 18 15 28 -8 28 -13 0 -20 -7 -20
-20z"/>
<path d="M15938 9893 c-31 -5 -37 -18 -13 -27 17 -6 21 -46 5 -46 -5 0 -10 -7
-10 -15 0 -23 13 -18 48 18 35 36 43 78 15 76 -10 -1 -30 -4 -45 -6z"/>
<path d="M15854 9879 c-10 -17 13 -36 27 -22 12 12 4 33 -11 33 -5 0 -12 -5
-16 -11z"/>
<path d="M12850 9774 c0 -8 5 -12 10 -9 6 4 8 11 5 16 -9 14 -15 11 -15 -7z"/>
<path d="M15920 9730 c0 -5 9 -10 21 -10 11 0 17 5 14 10 -3 6 -13 10 -21 10
-8 0 -14 -4 -14 -10z"/>
<path d="M4123 9700 c-13 -5 -23 -16 -23 -24 0 -7 -7 -16 -15 -20 -29 -11 -11
-66 22 -66 8 0 16 14 20 30 3 17 17 40 31 51 22 17 24 22 12 29 -18 11 -18 11
-47 0z"/>
<path d="M4212 9540 c1 -16 5 -30 9 -30 11 0 21 38 14 50 -12 20 -25 9 -23
-20z"/>
<path d="M5540 9450 c0 -5 5 -10 10 -10 6 0 10 5 10 10 0 6 -4 10 -10 10 -5 0
-10 -4 -10 -10z"/>
<path d="M6370 9409 c0 -5 5 -7 10 -4 6 3 10 8 10 11 0 2 -4 4 -10 4 -5 0 -10
-5 -10 -11z"/>
<path d="M15400 9404 c0 -8 5 -12 10 -9 6 3 10 10 10 16 0 5 -4 9 -10 9 -5 0
-10 -7 -10 -16z"/>
<path d="M4261 9386 c-16 -19 -11 -29 8 -17 7 5 12 14 9 21 -3 9 -8 7 -17 -4z"/>
<path d="M6330 9345 c0 -8 5 -15 10 -15 6 0 10 7 10 15 0 8 -4 15 -10 15 -5 0
-10 -7 -10 -15z"/>
<path d="M5270 9341 c0 -5 9 -7 20 -4 11 3 20 7 20 9 0 2 -9 4 -20 4 -11 0
-20 -4 -20 -9z"/>
<path d="M12591 9324 c0 -11 3 -14 6 -6 3 7 2 16 -1 19 -3 4 -6 -2 -5 -13z"/>
<path d="M5252 9298 c-17 -17 -15 -38 3 -38 10 0 14 9 13 25 -1 14 -3 25 -3
25 -1 0 -6 -5 -13 -12z"/>
<path d="M6035 9300 c3 -5 8 -10 11 -10 2 0 4 5 4 10 0 6 -5 10 -11 10 -5 0
-7 -4 -4 -10z"/>
<path d="M4652 9288 c-7 -7 -12 -29 -12 -50 0 -31 4 -38 19 -38 33 0 44 24 30
65 -14 38 -19 41 -37 23z"/>
<path d="M6290 9276 c0 -8 4 -17 9 -20 10 -7 23 19 14 28 -11 11 -23 6 -23 -8z"/>
<path d="M5077 9254 c-11 -11 -8 -44 3 -44 15 0 24 30 13 41 -5 5 -12 6 -16 3z"/>
<path d="M4555 9210 c4 -6 11 -8 16 -5 14 9 11 15 -7 15 -8 0 -12 -5 -9 -10z"/>
<path d="M6260 9204 c0 -8 5 -12 10 -9 6 3 10 10 10 16 0 5 -4 9 -10 9 -5 0
-10 -7 -10 -16z"/>
<path d="M12510 9200 c0 -5 5 -10 10 -10 6 0 10 5 10 10 0 6 -4 10 -10 10 -5
0 -10 -4 -10 -10z"/>
<path d="M4982 9192 c-6 -5 -14 -22 -18 -39 -6 -30 -5 -31 36 -35 35 -3 43 0
50 17 5 12 3 21 -4 24 -6 2 -20 12 -31 22 -12 10 -26 15 -33 11z"/>
<path d="M5240 9190 c0 -5 5 -10 11 -10 5 0 7 5 4 10 -3 6 -8 10 -11 10 -2 0
-4 -4 -4 -10z"/>
<path d="M4388 9162 c-44 -27 -34 -40 20 -26 13 4 22 14 22 25 0 23 -6 23 -42
1z"/>
<path d="M6217 9153 c-13 -12 -7 -33 8 -33 8 0 15 9 15 20 0 20 -11 26 -23 13z"/>
<path d="M4505 9099 c-10 -15 3 -25 16 -12 7 7 7 13 1 17 -6 3 -14 1 -17 -5z"/>
<path d="M4920 9095 c-7 -9 -10 -18 -7 -21 10 -11 37 5 37 21 0 19 -14 19 -30
0z"/>
<path d="M6186 9071 c-4 -7 -5 -15 -2 -18 9 -9 19 4 14 18 -4 11 -6 11 -12 0z"/>
<path d="M12400 9030 c0 -5 5 -10 10 -10 6 0 10 5 10 10 0 6 -4 10 -10 10 -5
0 -10 -4 -10 -10z"/>
<path d="M4883 9013 c-19 -7 -16 -31 6 -43 37 -19 67 10 39 38 -13 13 -24 14
-45 5z"/>
<path d="M6151 8994 c0 -11 3 -14 6 -6 3 7 2 16 -1 19 -3 4 -6 -2 -5 -13z"/>
<path d="M15215 8988 c-62 -21 -95 -38 -95 -49 0 -8 11 -9 31 -5 17 3 40 1 52
-6 25 -13 107 -19 107 -7 0 17 -43 79 -53 78 -7 -1 -25 -6 -42 -11z"/>
<path d="M6110 8918 c0 -19 2 -20 10 -8 13 19 13 30 0 30 -5 0 -10 -10 -10
-22z"/>
<path d="M12325 8910 c-3 -5 -1 -10 4 -10 6 0 11 5 11 10 0 6 -2 10 -4 10 -3
0 -8 -4 -11 -10z"/>
<path d="M6070 8850 c0 -11 5 -20 10 -20 6 0 10 9 10 20 0 11 -4 20 -10 20 -5
0 -10 -9 -10 -20z"/>
<path d="M6035 8777 c-4 -10 -5 -21 -1 -24 10 -10 18 4 13 24 -4 17 -4 17 -12
0z"/>
<path d="M5994 8696 c-4 -9 -4 -20 0 -23 3 -4 12 -1 18 5 9 9 9 15 0 24 -9 9
-13 7 -18 -6z"/>
<path d="M4640 8691 c0 -5 5 -13 10 -16 6 -3 10 -2 10 4 0 5 -4 13 -10 16 -5
3 -10 2 -10 -4z"/>
<path d="M5957 8616 c-3 -8 -2 -18 3 -21 13 -8 24 15 12 27 -6 6 -11 4 -15 -6z"/>
<path d="M15673 8606 c-30 -31 -29 -36 6 -36 21 0 30 6 34 22 12 42 -7 49 -40
14z"/>
<path d="M5920 8524 c0 -14 4 -23 10 -19 6 3 10 15 10 26 0 10 -4 19 -10 19
-5 0 -10 -12 -10 -26z"/>
<path d="M4527 8464 c-14 -14 -7 -35 11 -32 9 2 17 10 17 17 0 16 -18 25 -28
15z"/>
<path d="M4650 8375 c0 -8 5 -15 10 -15 6 0 10 7 10 15 0 8 -4 15 -10 15 -5 0
-10 -7 -10 -15z"/>
<path d="M11929 8357 c-28 -24 -189 -224 -189 -235 0 -4 -24 -34 -54 -67 -50
-54 -76 -105 -54 -105 5 0 25 7 46 16 132 56 242 61 367 17 50 -18 119 -37
153 -43 72 -12 132 -38 132 -55 0 -22 -37 -45 -73 -45 -37 0 -87 -17 -87 -30
0 -10 103 -30 150 -30 79 0 167 47 192 102 30 65 30 93 -2 126 -15 17 -38 33
-49 37 -11 3 -33 26 -48 50 -19 30 -45 52 -80 70 -29 15 -57 33 -64 41 -6 8
-22 14 -35 14 -33 0 -59 41 -44 69 16 30 -4 65 -33 57 -12 -3 -55 -6 -95 -7
-41 -1 -80 -8 -90 -15 -25 -19 -32 -17 -32 11 0 14 5 24 11 23 6 -2 14 3 16
10 7 18 -9 14 -38 -11z m-147 -272 c0 -5 -5 -11 -11 -13 -6 -2 -11 4 -11 13 0
9 5 15 11 13 6 -2 11 -8 11 -13z"/>
<path d="M5650 7905 c0 -42 2 -46 16 -35 18 15 15 71 -3 78 -9 2 -13 -10 -13
-43z"/>
<path d="M15605 7850 c3 -5 8 -10 11 -10 2 0 4 5 4 10 0 6 -5 10 -11 10 -5 0
-7 -4 -4 -10z"/>
<path d="M10988 7216 c-60 -56 -108 -105 -108 -109 0 -4 -16 -28 -36 -54 -36
-47 -32 -72 6 -38 18 16 20 16 45 -3 14 -11 45 -23 68 -27 53 -9 100 -37 115
-69 9 -21 15 -23 56 -19 35 4 46 2 46 -8 1 -34 16 -41 57 -29 35 11 45 10 79
-8 22 -11 46 -28 53 -36 9 -10 30 -16 60 -16 40 0 54 -6 88 -35 29 -24 51 -35
73 -35 26 0 41 -9 74 -46 22 -25 57 -54 76 -64 19 -10 62 -44 95 -76 137 -134
216 -187 330 -224 22 -7 51 -21 64 -32 18 -14 27 -15 37 -7 8 6 14 16 14 21 0
20 -199 205 -243 226 -52 25 -182 167 -232 256 -34 60 -157 213 -194 241 -22
17 -25 17 -36 2 -7 -10 -17 -17 -24 -17 -6 0 -11 -4 -11 -9 0 -16 -61 -19 -76
-4 -17 17 -18 25 -2 41 13 13 -5 42 -27 42 -7 0 -18 6 -25 14 -6 8 -23 16 -38
18 -18 2 -28 10 -30 23 -6 30 -16 37 -58 37 -21 0 -48 4 -60 8 -26 10 -106 90
-120 119 -8 18 -19 11 -116 -83z"/>
<path d="M16617 7023 c-4 -3 -7 -11 -7 -17 0 -6 5 -5 12 2 6 6 9 14 7 17 -3 3
-9 2 -12 -2z"/>
<path d="M16586 6968 c-9 -12 -23 -45 -32 -72 -10 -28 -32 -71 -49 -97 -42
-59 -68 -109 -61 -117 22 -22 148 179 170 270 8 35 -8 44 -28 16z"/>
<path d="M15697 6859 c-45 -34 -109 -135 -105 -167 2 -22 9 -28 35 -30 18 -2
42 2 53 8 27 14 93 150 88 182 -4 30 -35 34 -71 7z"/>
<path d="M10485 6680 c-3 -5 -1 -10 4 -10 6 0 11 5 11 10 0 6 -2 10 -4 10 -3
0 -8 -4 -11 -10z"/>
<path d="M10445 6640 c-3 -5 1 -10 9 -10 9 0 16 5 16 10 0 6 -4 10 -9 10 -6 0
-13 -4 -16 -10z"/>
<path d="M10410 6599 c0 -5 5 -7 10 -4 6 3 10 8 10 11 0 2 -4 4 -10 4 -5 0
-10 -5 -10 -11z"/>
<path d="M16325 6510 c3 -5 13 -10 21 -10 8 0 14 5 14 10 0 6 -9 10 -21 10
-11 0 -17 -4 -14 -10z"/>
<path d="M16024 6475 c-3 -8 -14 -17 -25 -20 -10 -4 -32 -26 -48 -49 -20 -29
-49 -53 -87 -72 -49 -25 -104 -76 -104 -98 0 -3 14 1 31 10 24 12 45 14 85 9
37 -4 54 -3 54 5 0 6 -7 13 -16 17 -12 4 -8 12 18 35 18 16 43 33 55 38 30 13
51 47 59 98 4 29 3 42 -5 42 -6 0 -14 -7 -17 -15z"/>
<path d="M16263 6483 c-23 -9 -15 -35 10 -31 12 2 22 9 22 17 0 16 -14 22 -32
14z"/>
<path d="M16198 6439 c-27 -15 -21 -31 9 -27 17 2 29 10 31 21 4 19 -14 22
-40 6z"/>
<path d="M16117 6393 c-14 -13 -6 -24 15 -21 27 4 36 28 11 28 -11 0 -23 -3
-26 -7z"/>
<path d="M15815 6220 c3 -5 10 -10 16 -10 5 0 9 5 9 10 0 6 -7 10 -16 10 -8 0
-12 -4 -9 -10z"/>
<path d="M14580 5841 c-14 -27 -13 -31 8 -31 21 0 56 33 45 43 -13 14 -43 7
-53 -12z"/>
<path d="M9516 5821 c-4 -7 -5 -15 -2 -18 9 -9 19 4 14 18 -4 11 -6 11 -12 0z"/>
<path d="M9460 5770 c0 -5 7 -10 15 -10 8 0 15 5 15 10 0 6 -7 10 -15 10 -8 0
-15 -4 -15 -10z"/>
<path d="M9415 5731 c-6 -11 9 -23 19 -14 9 9 7 23 -3 23 -6 0 -12 -4 -16 -9z"/>
<path d="M9351 5696 c-7 -8 -37 -27 -68 -42 -30 -16 -58 -34 -60 -41 -3 -7
-11 -13 -18 -13 -7 0 -35 -17 -62 -38 -50 -39 -94 -70 -123 -87 -10 -6 -26
-17 -35 -25 -9 -8 -25 -19 -35 -25 -10 -5 -39 -25 -65 -42 -25 -18 -50 -33
-54 -33 -5 0 -15 -7 -22 -16 -7 -9 -22 -20 -34 -25 -11 -5 -45 -27 -75 -49
-30 -22 -60 -40 -66 -40 -6 0 -19 -9 -29 -20 -10 -11 -23 -20 -30 -20 -7 0
-20 -9 -30 -20 -10 -11 -26 -20 -35 -20 -9 0 -25 -9 -35 -20 -10 -11 -26 -20
-35 -20 -9 0 -25 -9 -35 -20 -10 -11 -26 -20 -35 -20 -10 0 -29 -9 -43 -20
-14 -11 -34 -20 -45 -20 -10 0 -27 -9 -37 -20 -10 -11 -25 -20 -34 -20 -9 0
-26 -7 -39 -15 -32 -23 -132 -75 -144 -75 -5 0 -21 -9 -35 -20 -14 -11 -35
-20 -45 -20 -11 0 -31 -9 -45 -20 -14 -11 -37 -20 -50 -20 -14 0 -36 -9 -50
-20 -14 -11 -36 -20 -48 -20 -12 0 -30 -9 -40 -20 -11 -12 -31 -20 -49 -20
-17 0 -43 -8 -56 -17 -13 -10 -42 -20 -64 -23 -22 -3 -41 -10 -43 -16 -2 -7
47 -13 154 -17 87 -3 219 -13 293 -21 170 -18 1555 -16 1630 3 25 6 149 14
275 17 149 3 256 11 305 21 41 8 150 21 242 28 112 8 173 16 184 26 15 13 15
14 -7 20 -13 4 -41 7 -61 8 -30 1 -38 5 -38 20 0 23 -58 51 -69 33 -9 -15 -28
-2 -32 22 -3 13 -19 23 -54 32 -90 23 -107 32 -100 54 6 20 7 20 -73 36 -30 6
-102 51 -102 64 0 5 -7 7 -16 3 -9 -3 -26 5 -42 20 -15 13 -37 28 -49 31 -12
4 -38 18 -58 32 -20 13 -40 22 -45 19 -10 -6 -33 16 -63 60 -21 29 -32 26 -32
-8 0 -34 -29 -26 -40 10 -6 17 -23 43 -38 57 -16 15 -27 36 -27 51 0 18 -9 31
-30 43 -21 12 -34 31 -46 68 -9 29 -32 69 -54 93 -21 23 -38 50 -38 59 3 37
-12 72 -32 72 -14 0 -23 11 -31 40 -13 42 -36 53 -58 26z m729 -746 c0 -5 -4
-10 -9 -10 -6 0 -13 5 -16 10 -3 6 1 10 9 10 9 0 16 -4 16 -10z m-1403 -263
c3 -4 -25 -7 -63 -7 -44 0 -64 4 -55 9 16 10 107 8 118 -2z"/>
<path d="M14490 5640 c0 -5 9 -10 20 -10 11 0 20 5 20 10 0 6 -9 10 -20 10
-11 0 -20 -4 -20 -10z"/>
<path d="M14380 5600 c0 -5 9 -10 20 -10 11 0 20 5 20 10 0 6 -9 10 -20 10
-11 0 -20 -4 -20 -10z"/>
<path d="M14245 5560 c-7 -11 39 -25 54 -15 6 3 11 10 11 16 0 12 -57 12 -65
-1z"/>
<path d="M14140 5520 c-21 -6 -22 -8 -8 -14 23 -10 61 -4 66 12 4 13 -19 14
-58 2z"/>
<path d="M14010 5470 c0 -5 11 -10 24 -10 14 0 28 5 31 10 4 6 -7 10 -24 10
-17 0 -31 -4 -31 -10z"/>
<path d="M13770 5390 c0 -5 11 -10 25 -10 14 0 25 5 25 10 0 6 -11 10 -25 10
-14 0 -25 -4 -25 -10z"/>
<path d="M13640 5350 c0 -5 7 -10 15 -10 8 0 15 5 15 10 0 6 -7 10 -15 10 -8
0 -15 -4 -15 -10z"/>
<path d="M11105 4811 c11 -5 38 -5 60 -1 38 7 36 8 -20 8 -40 1 -53 -2 -40 -7z"/>
<path d="M10803 4773 c9 -2 23 -2 30 0 6 3 -1 5 -18 5 -16 0 -22 -2 -12 -5z"/>
</g>
</svg>
